<?xml version="1.0" encoding="UTF-8" standalone="no"?>
<svg
   version="1.1"
   viewBox="0 0 256 48"
   id="svg14"
   sodipodi:docname="armbian_logo_v1.svg"
   inkscape:version="1.3.2 (091e20e, 2023-11-25, custom)"
   inkscape:export-filename="config_logo.png"
   inkscape:export-xdpi="192"
   inkscape:export-ydpi="192"
   width="256"
   height="48"
   xml:space="preserve"
   xmlns:inkscape="http://www.inkscape.org/namespaces/inkscape"
   xmlns:sodipodi="http://sodipodi.sourceforge.net/DTD/sodipodi-0.dtd"
   xmlns="http://www.w3.org/2000/svg"
   xmlns:svg="http://www.w3.org/2000/svg"><defs
     id="defs14"><pattern
       id="EMFhbasepattern"
       patternUnits="userSpaceOnUse"
       width="6"
       height="6"
       x="0"
       y="0" /></defs><sodipodi:namedview
     id="namedview14"
     pagecolor="#505050"
     bordercolor="#ffffff"
     borderopacity="1"
     inkscape:showpageshadow="0"
     inkscape:pageopacity="0"
     inkscape:pagecheckerboard="1"
     inkscape:deskcolor="#d1d1d1"
     inkscape:zoom="4.0434492"
     inkscape:cx="119.20516"
     inkscape:cy="27.822781"
     inkscape:window-width="1920"
     inkscape:window-height="1174"
     inkscape:window-x="-11"
     inkscape:window-y="-11"
     inkscape:window-maximized="1"
     inkscape:current-layer="svg14"
     inkscape:export-bgcolor="#00000000" /><path
     style="fill:#f71d0f;stroke:none;stroke-width:0.999995"
     d="m 126.24993,5.1120917 1.13257,21.5189193 -0.56628,15.85605 c 2.84558,0.996384 6.02549,1.898812 9.06059,1.384029 9.99815,-1.695792 12.21616,-13.867898 10.42172,-22.336659 -1.0076,-4.755332 -5.28106,-9.154083 -10.37186,-6.444389 -1.987,1.057635 -3.13391,3.106019 -4.58016,4.745527 l 0.56629,-15.8560499 -5.66287,1.1325726 m 27.5618,0.7300602 c -2.21509,1.5852413 -0.6055,6.4027831 2.18232,4.7248551 2.52678,-1.5208114 0.67271,-6.7680627 -2.18232,-4.7248551 M 49.234854,16.437844 l 1.132575,3.397725 c 6.706419,-2.539588 11.851957,-3.042075 11.892037,5.66287 -2.921625,1.3e-5 -6.288507,-0.415038 -9.048524,0.727158 -10.58178,4.379126 -2.45038,23.769278 6.518654,15.41123 0.961882,-0.896355 1.436809,-1.942889 1.96358,-3.11378 h 0.56629 l 0.56628,5.096587 h 4.5303 c -1.819,-10.050385 4.16756,-32.083231 -12.458197,-29.150073 -2.016572,0.355771 -3.83853,1.067218 -5.662995,1.968283 m 22.651492,-1.132579 v 0.56629 l 1.69887,9.060594 -0.56629,18.687485 h 5.09658 c 0,-8.323887 -3.09373,-23.46085 7.92803,-25.482927 l 0.56628,-3.964014 c -3.94037,0.371259 -6.47098,2.590783 -7.92802,6.229159 h -0.56629 v -6.229159 l -6.22916,1.132572 m 16.42234,0 c 3.53959,7.302546 2.53218,20.407578 1.13257,28.314369 h 5.09659 c 0,-6.449667 -0.76121,-13.432655 0.15218,-19.819632 0.35205,-2.461735 1.91786,-5.707202 4.93242,-5.262578 2.988004,0.44071 3.609884,3.933456 3.850924,6.394725 0.61244,6.253562 -0.41644,12.455018 -0.44122,18.687485 h 5.09658 c -0.58268,-6.256931 -1.25878,-13.005476 -0.21902,-19.253755 0.42023,-2.525239 1.62187,-5.907435 4.7416,-5.907435 2.87458,0 3.81627,2.995334 3.94265,5.341227 0.35117,6.518347 0.31998,13.354761 -0.53721,19.819963 h 5.66288 c -1.41582,-7.99833 0.74787,-16.434069 -0.87526,-24.348803 -0.97936,-4.775618 -5.75531,-6.346964 -9.83808,-3.877482 -1.4704,0.889383 -2.69535,2.213275 -4.01013,3.30964 -1.74557,-6.344622 -9.476784,-5.241089 -11.892024,0 h -0.56629 v -4.530296 l -6.22916,1.132572 m 63.424174,0 c 2.80368,8.07625 1.67997,19.914492 0.56629,28.314369 h 5.66287 c -1.19252,-8.994417 -1.91023,-20.544199 0,-29.446941 l -6.22916,1.132572 m 12.45832,1.132579 1.13258,3.397725 c 6.70639,-2.539588 11.85199,-3.042089 11.89203,5.66287 -2.92158,1.3e-5 -6.28857,-0.415086 -9.04853,0.727158 -10.51237,4.350687 -2.48187,23.798655 6.51866,15.41123 0.96188,-0.896355 1.43681,-1.942902 1.96358,-3.11378 h 0.56629 c 0.0632,4.094993 1.19551,4.707113 5.09659,5.096587 -1.8147,-10.026765 4.13034,-32.076664 -12.4582,-29.150073 -2.01657,0.355771 -3.83853,1.067218 -5.663,1.968283 m 23.21778,-1.132579 0.56629,28.314369 h 5.09659 c -0.39553,-6.609287 -1.53507,-13.838063 -0.006,-20.385922 0.63837,-2.734234 2.92634,-5.994656 6.17899,-5.260236 2.89012,0.652572 3.37542,3.92552 3.44217,6.392403 0.17423,6.439186 0.0421,12.850115 -0.55421,19.253755 h 5.66288 c -1.26105,-5.634566 -1.13257,-11.250343 -1.13257,-16.988623 0,-2.796524 0.57042,-6.397033 -0.53208,-9.031507 -2.51982,-6.021198 -10.65099,-3.281822 -13.05882,1.103485 h -0.56629 v -4.530296 l -5.09659,1.132572 m -50.91852,3.336332 c 2.99132,-0.559406 4.88885,2.68293 5.37334,5.158405 1.02746,5.249707 0.98007,15.783724 -5.9851,16.787484 -1.51166,0.217834 -3.12175,-0.06793 -3.68192,-1.659032 -0.52709,-1.497143 -0.28336,-3.375831 -0.28395,-4.935704 -0.002,-4.11858 -1.21488,-14.267887 4.57763,-15.351153 m -74.230984,9.688276 c -0.003,1.692175 0.0711,3.425307 -0.23793,5.097161 -0.21435,1.159554 -0.587232,2.322819 -1.201277,3.336284 -5.176193,8.543206 -13.086013,-5.829508 -4.198969,-8.135362 1.801799,-0.467509 3.793482,-0.297158 5.638176,-0.298083 m 114.956324,0 c -0.003,1.692175 0.0711,3.4253 -0.23792,5.097161 -0.21435,1.159547 -0.58724,2.322819 -1.20129,3.336284 -5.05832,8.348647 -13.06864,-5.389581 -4.21756,-8.091252 1.77943,-0.543142 3.8191,-0.341268 5.65677,-0.342193 z"
     id="path1" /></svg>
