<?xml version="1.0" encoding="UTF-8" standalone="no"?>
<svg
   version="1.1"
   viewBox="0 0 256 48"
   id="svg14"
   sodipodi:docname="config_font.svg"
   inkscape:version="1.3.2 (091e20e, 2023-11-25, custom)"
   inkscape:export-filename="config_logo.png"
   inkscape:export-xdpi="192"
   inkscape:export-ydpi="192"
   width="256"
   height="48"
   xmlns:inkscape="http://www.inkscape.org/namespaces/inkscape"
   xmlns:sodipodi="http://sodipodi.sourceforge.net/DTD/sodipodi-0.dtd"
   xmlns="http://www.w3.org/2000/svg"
   xmlns:svg="http://www.w3.org/2000/svg">
  <defs
     id="defs14">
    <pattern
       id="EMFhbasepattern"
       patternUnits="userSpaceOnUse"
       width="6"
       height="6"
       x="0"
       y="0" />
  </defs>
  <sodipodi:namedview
     id="namedview14"
     pagecolor="#505050"
     bordercolor="#ffffff"
     borderopacity="1"
     inkscape:showpageshadow="0"
     inkscape:pageopacity="0"
     inkscape:pagecheckerboard="1"
     inkscape:deskcolor="#d1d1d1"
     inkscape:zoom="3.7784548"
     inkscape:cx="122.27221"
     inkscape:cy="-5.1608398"
     inkscape:window-width="1920"
     inkscape:window-height="1174"
     inkscape:window-x="-11"
     inkscape:window-y="-11"
     inkscape:window-maximized="1"
     inkscape:current-layer="svg14"
     inkscape:export-bgcolor="#00000000" />
  <path
     id="path2"
     style="display:inline;fill:#000000;stroke:#ffffff;stroke-width:1;stroke-dasharray:none;paint-order:fill markers stroke;stroke-linejoin:bevel;stroke-linecap:round"
     d="m 156.85805,4.3551791 -4.17187,0.1191406 c -4.82003,0.138656 -6.06883,0.4614081 -7.56055,1.953125 -1.11758,1.1175822 -1.7207,2.8766931 -1.7207,5.0078133 v 1.449218 h -1.74414 -1.74414 v 2.492188 2.490234 h 1.74414 1.74414 v 8.472656 8.470704 h 3.48828 3.48828 v -8.470704 -8.472656 h 2.98828 2.99024 v -2.490234 -2.492188 h -2.99024 -2.98828 v -1.34375 c 0,-0.950175 0.13791,-1.513455 0.47461,-1.9296875 0.43941,-0.5431975 0.68846,-0.5959483 3.24024,-0.6738282 l 2.76171,-0.083984 V 6.6051791 Z m 2.99024,0.056641 v 2.8652344 2.8671875 h 3.48828 3.48828 V 7.2770541 4.4118197 h -3.48828 z m 23.25195,7.6562499 c -2.13289,0 -4.26475,0.440668 -5.94336,1.320312 -3.21888,1.686813 -5.22265,5.5591 -5.22265,10.095704 0,5.803371 2.94429,9.915753 7.92382,11.072265 2.19493,0.509778 4.74595,0.439854 6.91993,-0.126953 l -0.27344,1.457031 c -1.18051,2.234745 -3.83001,3.07695 -6.8711,2.792969 -1.38756,-0.129574 -2.3101,-0.450906 -4.62304,-1.609375 -0.10739,-0.05379 -0.16387,1.173736 -0.125,2.726563 l 0.0703,2.822265 1.62109,0.449219 c 1.89762,0.525718 6.29819,0.755166 8.13477,0.423828 5.56327,-1.00367 8.98465,-5.822265 9.58203,-11.335937 0.32496,-2.999285 0.30922,-5.827146 -0.0273,-8.34961 0.0234,-1.007766 -0.0512,-2.046032 -0.23633,-3.091797 -0.5561,-3.140739 -2.52886,-6.0394 -4.98438,-7.326172 -1.67864,-0.879644 -3.81244,-1.320312 -5.94534,-1.320312 z m -54.57031,0.341797 c -2.11384,-0.01512 -4.26729,0.740971 -5.89063,2.224609 -0.74624,0.682033 -1.42421,1.240235 -1.50781,1.240235 -0.0835,0 -0.15234,-0.673859 -0.15234,-1.496094 v -1.494141 h -3.48828 -3.48828 v 10.962891 10.962891 h 3.46484 3.46289 l 0.0879,-6.558594 0.0859,-6.558594 0.74805,-1.457031 c 0.58571,-1.142252 0.98859,-1.588781 1.86718,-2.058594 1.33659,-0.71472 3.16883,-0.673297 4.02539,0.08984 1.1255,1.002767 1.20703,1.643857 1.20703,9.308593 v 7.234376 h 3.50391 3.50391 l -0.0781,-8.416016 -0.0762,-8.414063 -0.83398,-1.691406 c -0.57463,-1.16664 -1.1478,-1.918803 -1.84766,-2.425781 -1.32985,-0.963336 -2.94965,-1.441365 -4.59375,-1.453125 z m -31.470702,0.02148 c -2.284528,0 -4.569263,0.440667 -6.367191,1.320313 -3.447728,1.686813 -5.591797,5.559095 -5.591797,10.095703 0,5.803377 3.152786,9.917706 8.486328,11.074219 3.24057,0.702677 7.210852,0.307735 9.839842,-0.978516 4.19582,-2.052817 6.38863,-7.333106 5.33985,-12.863281 -0.59563,-3.140744 -2.70977,-6.041353 -5.33985,-7.328125 -1.79792,-0.879646 -4.082662,-1.320313 -6.367182,-1.320313 z m -23.228519,0.09375 c -1.90857,0.0048 -3.788046,0.18619 -4.863282,0.541016 -5.220298,1.722687 -7.833625,5.84781 -7.460937,11.777344 0.347891,5.535022 3.665237,9.205313 9.228516,10.208984 1.836578,0.331338 6.239093,0.101891 8.136718,-0.423828 l 1.619141,-0.447266 0.07031,-2.824219 c 0.03887,-1.552827 -0.01761,-2.778399 -0.125,-2.724609 -2.312938,1.15847 -3.233518,1.477848 -4.621093,1.607422 -3.041089,0.283981 -5.294102,-0.755488 -6.47461,-2.990234 -0.79227,-1.4998 -0.79227,-5.304888 0,-6.804688 1.439665,-2.725342 4.627747,-3.73566 8.240235,-2.611328 0.821873,0.255798 1.843338,0.714668 2.271484,1.019531 l 0.779297,0.554688 -0.07031,-2.947266 -0.07031,-2.947266 -1.619141,-0.472656 c -1.194206,-0.349091 -3.132446,-0.520451 -5.041015,-0.515625 z m 86.017581,0.359375 v 10.962891 10.962891 h 3.48828 3.48828 V 23.847367 12.884476 h -3.48828 z m 23.19922,4.154297 c 0.18274,-0.0013 0.36999,0.0075 0.5625,0.02734 2.67615,0.275428 4.14259,3.06209 3.84375,7.304687 -0.19706,2.797536 -1.07046,4.525378 -2.65821,5.25 -0.93849,0.428359 -2.52283,0.423371 -3.45117,-0.0098 -1.63906,-0.764681 -2.66406,-3.120979 -2.66406,-6.126953 0,-4.056218 1.6261,-6.426148 4.36719,-6.445313 z M 97.002588,17.40205 c 0.19573,-0.0013 0.39732,0.0075 0.60351,0.02734 2.866422,0.275428 4.437282,3.064038 4.117192,7.306641 -0.21107,2.797537 -1.14899,4.523423 -2.849612,5.248047 -1.00523,0.428358 -2.70098,0.423337 -3.69531,-0.0098 -1.755581,-0.764682 -2.853519,-3.120976 -2.853519,-6.126953 0,-4.056222 1.741784,-6.426148 4.677739,-6.445313 z" />
</svg>
