<?xml version="1.0" encoding="UTF-8" standalone="no"?>
<svg
   version="1.1"
   viewBox="0 0 256 256"
   id="svg14"
   sodipodi:docname="configng_cog_v2.0.svg"
   inkscape:version="1.3.2 (091e20e, 2023-11-25, custom)"
   inkscape:export-filename="configng_sprocket_v2.png"
   inkscape:export-xdpi="192"
   inkscape:export-ydpi="192"
   width="256"
   height="256"
   xml:space="preserve"
   xmlns:inkscape="http://www.inkscape.org/namespaces/inkscape"
   xmlns:sodipodi="http://sodipodi.sourceforge.net/DTD/sodipodi-0.dtd"
   xmlns="http://www.w3.org/2000/svg"
   xmlns:svg="http://www.w3.org/2000/svg"><defs
     id="defs14" /><sodipodi:namedview
     id="namedview14"
     pagecolor="#505050"
     bordercolor="#ffffff"
     borderopacity="1"
     inkscape:showpageshadow="0"
     inkscape:pageopacity="0"
     inkscape:pagecheckerboard="1"
     inkscape:deskcolor="#d1d1d1"
     inkscape:zoom="2.2733103"
     inkscape:cx="73.24121"
     inkscape:cy="150.00152"
     inkscape:window-width="1898"
     inkscape:window-height="1161"
     inkscape:window-x="0"
     inkscape:window-y="0"
     inkscape:window-maximized="0"
     inkscape:current-layer="g13"
     inkscape:export-bgcolor="#00000000" /><g
     id="g13"
     style="display:inline;stroke-width:2.02424;stroke-dasharray:none"
     transform="matrix(0.96835444,-0.19486035,0.19448842,0.96895417,-20.61637,29.040612)"
     inkscape:label="config_v2_sprocket_full"><path
       style="display:inline;fill:#696969;stroke:#fffafa;stroke-width:1.01212;stroke-linejoin:round;stroke-dasharray:none;paint-order:fill markers stroke"
       d="M 170.24268,7.8776294 C 160.88453,12.620578 154.56815,24.233908 145.64187,30.768219 130.08506,29.241394 114.19828,29.505304 99.054724,33.929835 88.48005,30.052423 81.017605,18.507209 70.863895,14.230548 62.466291,20.188438 47.336628,24.623408 45.438628,34.910693 46.203721,45.945157 56.994337,58.343115 50.389232,68.555 41.245861,79.832386 36.574066,93.788463 32.008308,107.28866 c -9.822798,4.75962 -20.311253,8.23459 -30.445522,12.37571 -0.3659155,10.9411 0.2052911,21.99579 2.2504237,32.76008 10.4914103,3.04175 21.5019353,4.74436 31.7280813,8.43019 6.459056,13.32115 13.519234,26.75163 24.452133,37.06852 5.335162,9.76436 -1.921722,22.58955 -1.867492,33.48223 4.936316,9.11596 19.020941,12.13344 28.597719,16.65405 8.881991,-7.11954 15.262119,-18.23889 25.109009,-23.54356 14.93001,2.16581 30.22725,1.07125 44.75084,-2.99391 10.35272,4.28257 18.15241,13.91987 27.72375,19.96457 9.3537,-5.02037 21.14942,-10.90134 26.70266,-19.19176 -1.14249,-11.29988 -11.0431,-23.68563 -6.29431,-34.37642 10.12032,-11.56024 14.02568,-26.93136 20.07775,-40.34508 9.21454,-5.07386 22.54528,-6.78672 29.60488,-13.3832 0.48004,-10.4478 -0.41298,-20.92241 -2.17019,-31.21767 -10.53895,-2.66159 -21.16038,-5.028288 -31.59955,-8.066184 -6.48368,-12.761996 -12.93704,-26.035782 -23.51897,-36.079073 -6.00749,-3.444412 -2.73151,-9.573511 -2.34891,-14.763445 0.11989,-7.711153 5.22868,-17.132768 1.44958,-23.504406 -8.11627,-5.151175 -16.85793,-9.610899 -25.96751,-12.681561 z"
       id="path9-10"
       inkscape:label="sproket" /><path
       style="fill:#000000"
       d="m 82.000923,175.15019 c -2.113684,-2.54683 12.423246,-22.41721 14.719934,-20.12053 0.739575,0.73958 29.245293,-27.38447 29.245293,-28.85372 0,-0.52702 -1.20919,-2.22034 -2.68709,-3.76293 l -2.68709,-2.80472 2.80984,-2.93284 c 1.63688,-1.70854 4.32401,-3.19452 6.43709,-3.55969 5.69109,-0.98351 10.12725,-5.57966 10.12725,-10.49248 0,-1.93977 3.48961,-6.023789 14.76711,-17.28249 l 14.76711,-14.742491 8.46559,8.509798 8.46559,8.509798 -14.9702,14.995195 c -11.86906,11.88889 -15.52656,14.9952 -17.65597,14.9952 -3.93691,0 -8.64367,4.40003 -9.42442,8.81028 -0.36776,2.07732 -1.99915,5.11132 -3.73319,6.94283 l -3.07999,3.25311 -3.08058,-2.98582 -3.08058,-2.98582 -14.97024,14.99523 c -8.23363,8.24738 -14.85047,15.21936 -14.7041,15.49328 0.79719,1.4919 -3.865724,5.97485 -10.782006,10.36588 -6.321136,4.01319 -8.060977,4.72335 -8.949351,3.65293 z m 84.965237,0.69405 c -1.57538,-0.27763 -9.33138,-7.21773 -20.97117,-18.76512 -18.4216,-18.27535 -18.46611,-18.33017 -16.57632,-20.41837 l 1.89488,-2.09382 2.63102,2.52068 c 1.44706,1.38637 3.0752,2.52068 3.61809,2.52068 1.78255,0 9.40349,-8.53106 9.40349,-10.52649 0,-1.34745 5.10286,3.14505 16.49933,14.52582 17.58788,17.56365 19.04578,19.85623 16.51396,25.96858 -1.92825,4.65521 -7.34907,7.26623 -13.01328,6.26804 z m 4.69287,-5.8513 c 3.21785,-0.8629 4.13149,-6.00472 1.52934,-8.60687 -2.98345,-2.98345 -7.86748,-1.66941 -8.75128,2.35453 -0.47331,2.15494 -0.16579,3.54739 1.08984,4.93485 1.86876,2.06496 2.68817,2.24101 6.1321,1.31749 z m -58.49841,-45.68774 -5.25413,-5.32022 -5.96512,0.43148 c -11.135948,0.8055 -20.825056,-6.24473 -23.673544,-17.22593 -0.71875,-2.770856 -1.022557,-6.553162 -0.675126,-8.405128 l 0.631692,-3.36721 6.725245,6.673711 6.725245,6.673707 6.300817,-1.85555 6.300821,-1.85555 1.78878,-6.473111 1.78878,-6.473111 -6.66715,-6.75 -6.667143,-6.75 5.755303,0 c 13.76666,0 22.98668,9.240594 23.20134,23.25313 0.0959,6.257602 0.35215,7.009722 3.49275,10.250002 2.83783,2.92789 3.07823,3.49687 1.47748,3.49687 -1.0515,0 -4.06097,2.11684 -6.68772,4.70409 l -4.77591,4.70409 2.7135,2.83229 c 2.12179,2.21467 2.48598,3.19297 1.67012,4.48638 -1.78279,2.8263 -2.78971,2.45451 -8.20603,-3.02994 z"
       id="path1"
       inkscape:label="tools"
       transform="matrix(0.99258854,0.19961331,-0.19923231,0.99197418,26.249401,-24.692236)" /><g
       id="g1"
       inkscape:label="font"
       style="display:none;stroke-width:2.02424;stroke-dasharray:none"><path
         d="m 26.291235,143.75411 c -1.786208,0.0599 -2.698773,0.0734 -2.720798,0.0403 -0.01823,-0.0274 2.732645,-6.85382 6.112933,-15.16963 3.380383,-8.31581 6.185128,-15.20474 6.233199,-15.30834 l 0.08684,-0.18857 3.427852,-0.11416 c 1.885303,-0.0627 3.455267,-0.098 3.488742,-0.0783 0.0335,0.0197 3.319813,6.70589 7.302948,14.85756 3.9831,8.15215 7.229609,14.84365 7.214631,14.86991 -0.01693,0.0295 -1.102581,0.0841 -2.814268,0.14143 -2.611402,0.0875 -2.810889,0.0886 -3.171751,0.009 -0.211769,-0.0465 -0.548253,-0.16328 -0.74777,-0.25932 -0.232364,-0.11183 -0.49147,-0.29493 -0.720959,-0.50946 -0.197018,-0.18416 -0.433045,-0.4549 -0.524492,-0.60159 -0.09145,-0.1467 -2.169518,-4.67771 -4.617846,-10.06875 -2.44838,-5.39136 -4.485936,-9.86323 -4.527904,-9.93807 -0.04202,-0.0749 -0.149139,-0.17716 -0.238105,-0.22733 -0.09717,-0.0547 -0.250723,-0.0883 -0.384566,-0.0837 -0.136403,0.005 -0.285137,0.0484 -0.383546,0.11289 -0.109975,0.0721 -0.202406,0.20416 -0.292709,0.4181 -0.07259,0.17196 -1.814805,4.76938 -3.871587,10.21668 -2.056799,5.44683 -3.795412,10.01706 -3.863636,10.1555 -0.06822,0.13838 -0.285478,0.42537 -0.482834,0.63775 -0.243599,0.26211 -0.471328,0.44909 -0.709152,0.58225 -0.192663,0.10788 -0.52062,0.24578 -0.728805,0.30647 -0.353887,0.10312 -0.553312,0.11617 -3.066184,0.2004 z m 36.694571,-1.23008 c -3.348109,0.11224 -3.439165,0.11245 -3.492188,0.0213 -0.03721,-0.0641 -0.213383,-4.83622 -0.555913,-15.05401 -0.4537,-13.53399 -0.494079,-14.96748 -0.426281,-15.04054 0.06762,-0.0722 0.74956,-0.10283 6.768385,-0.3046 3.848604,-0.12901 7.03066,-0.21464 7.487128,-0.2018 0.436625,0.0124 1.006337,0.0394 1.266039,0.0602 0.259692,0.0207 0.774794,0.0822 1.144663,0.1364 0.369869,0.0542 0.964808,0.16841 1.322091,0.25378 0.357285,0.0853 0.89768,0.23595 1.20088,0.3346 0.303201,0.0986 0.868326,0.32125 1.255821,0.4947 0.387496,0.17345 0.95024,0.46415 1.250478,0.64603 0.30024,0.1819 0.710863,0.45225 0.912389,0.60083 0.201544,0.14857 0.585748,0.47568 0.853715,0.72698 0.268009,0.25125 0.629368,0.63105 0.803057,0.84397 0.173682,0.21295 0.42556,0.54483 0.55973,0.73752 0.134178,0.1927 0.370931,0.58506 0.526165,0.87193 0.155226,0.28686 0.367515,0.74267 0.471804,1.01293 0.104289,0.27024 0.254642,0.72194 0.334108,1.00377 0.07949,0.28183 0.187382,0.7449 0.239813,1.02907 0.05238,0.28417 0.121349,0.89456 0.153174,1.35642 0.03458,0.50207 0.04315,1.10904 0.02172,1.50937 -0.01988,0.36827 -0.08255,0.94965 -0.139298,1.29195 -0.05676,0.34229 -0.190143,0.91489 -0.296437,1.27246 -0.106286,0.35757 -0.277255,0.84232 -0.37992,1.07723 -0.102674,0.2349 -0.292748,0.61508 -0.422393,0.84481 -0.129645,0.22972 -0.367414,0.60307 -0.5284,0.82969 -0.160978,0.22658 -0.43431,0.57295 -0.6074,0.76966 -0.173097,0.19673 -0.498544,0.52995 -0.723223,0.74042 -0.224687,0.21048 -0.659012,0.56231 -0.965179,0.78175 -0.306176,0.21945 -0.823814,0.5465 -1.150387,0.72668 -0.326531,0.18018 -0.603311,0.3444 -0.615113,0.36495 -0.01174,0.0205 1.551745,2.13459 3.47447,4.69789 1.922715,2.5633 3.489922,4.683 3.482665,4.71048 -0.0087,0.0327 -1.300846,0.0931 -3.747364,0.17508 l -3.734175,0.12518 -6.075762,-8.16369 -6.410391,0.1894 0.137727,4.10842 c 0.09176,2.73745 0.121671,4.14089 0.08963,4.20579 -0.0468,0.0948 -0.137667,0.10037 -3.485767,0.2126 z m 6.646287,-14.2978 c 3.089486,-0.12034 3.633911,-0.15262 3.995044,-0.23624 0.229957,-0.0533 0.616733,-0.16009 0.859507,-0.23737 0.242786,-0.0772 0.66066,-0.25443 0.928623,-0.39371 0.267955,-0.13929 0.662868,-0.39542 0.877532,-0.56914 0.214671,-0.17376 0.487183,-0.43718 0.605535,-0.58543 0.118369,-0.14822 0.300936,-0.4123 0.405702,-0.58683 0.104758,-0.17453 0.254863,-0.48764 0.333548,-0.69583 0.07866,-0.20816 0.183236,-0.58418 0.232328,-0.83561 0.07155,-0.36651 0.08428,-0.62864 0.06415,-1.32271 -0.0196,-0.66116 -0.04972,-0.96414 -0.129186,-1.28296 -0.05724,-0.22954 -0.161551,-0.56707 -0.231813,-0.75005 -0.07026,-0.18295 -0.229912,-0.49873 -0.354783,-0.7017 -0.124869,-0.20295 -0.397068,-0.53824 -0.604886,-0.74512 -0.208544,-0.20757 -0.574202,-0.49799 -0.81613,-0.64811 -0.241036,-0.14961 -0.641025,-0.349 -0.888859,-0.44306 -0.247823,-0.0941 -0.661635,-0.21836 -0.919543,-0.27622 -0.257917,-0.0579 -0.740047,-0.13375 -1.071396,-0.16865 -0.514415,-0.0542 -1.083697,-0.0477 -3.895205,0.0443 l -3.29276,0.10755 0.162816,5.2328 0.162816,5.23282 z m 20.983331,13.3716 c -1.787047,0.0599 -2.397847,0.0656 -2.443901,0.0225 -0.04753,-0.0443 -0.175478,-3.45989 -0.564752,-15.07204 -0.389274,-11.61215 -0.490344,-15.02848 -0.445901,-15.07603 0.04337,-0.0463 0.750324,-0.0844 2.882201,-0.15527 1.553654,-0.0516 2.852541,-0.0776 2.88652,-0.0576 0.03401,0.0199 2.705629,3.6564 5.937168,8.08071 3.231371,4.42453 5.901901,8.04971 5.934841,8.05603 0.0328,0.007 2.37574,-3.7118 5.20687,-8.26216 2.83093,-4.55046 5.207,-8.36219 5.28067,-8.47112 l 0.13337,-0.19749 2.84501,-0.0954 c 2.65923,-0.0891 2.84811,-0.0898 2.89321,-0.0103 0.0288,0.0507 0.25903,6.15248 0.57051,15.11888 l 0.52236,15.03386 -5.05039,0.1693 -0.33316,-0.14421 c -0.18324,-0.0794 -0.4269,-0.22326 -0.54147,-0.31991 -0.11457,-0.0966 -0.28005,-0.27637 -0.36774,-0.39943 -0.0877,-0.12307 -0.20169,-0.33474 -0.25334,-0.47039 -0.087,-0.22852 -0.11546,-0.83524 -0.38726,-8.25785 l -0.29329,-8.01095 -0.10512,-0.0114 c -0.091,-0.01 -0.60982,0.90448 -3.86135,6.80502 -2.80613,5.09222 -3.81732,6.88524 -3.99781,7.08735 -0.13287,0.14894 -0.36402,0.35492 -0.51366,0.45775 -0.14963,0.10283 -0.4445,0.2521 -0.65523,0.33171 -0.29974,0.11324 -0.4802,0.14849 -0.82874,0.16188 -0.28859,0.0116 -0.55121,-0.0103 -0.74558,-0.0609 -0.16502,-0.0429 -0.45264,-0.15142 -0.63915,-0.24114 -0.23148,-0.11134 -0.44932,-0.27315 -0.68627,-0.50978 -0.29598,-0.29555 -0.9555,-1.27625 -4.474562,-6.6538 -3.450561,-5.27263 -4.143582,-6.30448 -4.225968,-6.28984 -0.09797,0.0172 -0.09712,0.0645 0.139125,7.85672 0.168683,5.56383 0.223221,7.88358 0.18774,7.99123 -0.02747,0.0833 -0.09629,0.25038 -0.152937,0.37111 -0.05665,0.12071 -0.199944,0.33023 -0.318462,0.46561 -0.118508,0.13536 -0.305992,0.30316 -0.416629,0.37286 -0.110636,0.0697 -0.320977,0.16661 -0.46743,0.21533 -0.228559,0.0761 -0.603631,0.0998 -2.648791,0.1684 z m 42.530306,-1.43907 c -6.2368,0.22225 -7.93592,0.26983 -7.98557,0.22325 -0.0498,-0.0466 -0.16947,-3.22926 -0.56666,-15.07742 -0.42831,-12.77681 -0.49352,-15.02739 -0.43637,-15.07782 0.0503,-0.0446 1.94833,-0.11839 7.58661,-0.29498 6.72546,-0.21057 7.57694,-0.2286 8.06367,-0.17086 0.2993,0.0354 0.78117,0.10387 1.07082,0.15193 0.28967,0.0481 0.86322,0.18541 1.27456,0.30525 0.41136,0.11983 1.00963,0.33288 1.32945,0.47342 0.31985,0.14056 0.84343,0.41585 1.16353,0.61177 0.43764,0.26784 0.74735,0.51155 1.24862,0.98263 0.40947,0.38474 0.78336,0.78959 0.96917,1.04943 0.16638,0.23265 0.41686,0.63645 0.55661,0.89729 0.13974,0.26084 0.34078,0.71648 0.44674,1.01248 0.10595,0.29598 0.23231,0.71511 0.28081,0.93145 0.0485,0.21629 0.12438,0.6816 0.16862,1.03407 0.0483,0.38461 0.0759,0.89668 0.0688,1.28077 -0.007,0.35197 -0.0469,0.89762 -0.09,1.21263 -0.0431,0.31496 -0.15669,0.83555 -0.2524,1.15687 -0.0957,0.3213 -0.26148,0.774 -0.36838,1.00598 -0.10689,0.23199 -0.28311,0.56961 -0.39158,0.75025 -0.10848,0.18064 -0.3188,0.47716 -0.46737,0.65897 -0.14858,0.18177 -0.26933,0.35457 -0.26835,0.38396 9.5e-4,0.0294 0.16649,0.15769 0.36778,0.2851 0.20129,0.12741 0.57636,0.42793 0.83354,0.66785 0.26598,0.24814 0.61534,0.64257 0.81035,0.91492 0.18854,0.26331 0.46195,0.70807 0.60759,0.98837 0.14563,0.28029 0.33853,0.71211 0.42868,0.95962 0.0902,0.24752 0.21864,0.68879 0.28553,0.98064 0.067,0.29185 0.15727,0.849 0.2008,1.23812 0.0596,0.53213 0.071,0.89997 0.0459,1.4838 -0.0179,0.42694 -0.0707,1.00031 -0.11705,1.27418 -0.0464,0.27387 -0.16179,0.75908 -0.25638,1.07828 -0.0946,0.31919 -0.26539,0.78271 -0.37954,1.03003 -0.11416,0.24733 -0.33449,0.65342 -0.48969,0.90241 -0.15516,0.249 -0.43419,0.63073 -0.62003,0.84823 -0.18586,0.21751 -0.50556,0.55903 -0.71037,0.75894 -0.20483,0.1999 -0.60039,0.52727 -0.87901,0.72753 -0.27861,0.20024 -0.79394,0.51618 -1.14515,0.70208 -0.35122,0.18589 -0.97107,0.45997 -1.37748,0.60907 -0.40639,0.14907 -1.01182,0.33559 -1.34545,0.41449 -0.3336,0.0789 -0.86147,0.19058 -1.17306,0.24819 -0.51546,0.0953 -1.28063,0.13021 -8.48916,0.38709 z m 1.95917,-5.74608 c 1.8021,-0.0604 3.32942,-0.13341 3.62515,-0.17326 0.28106,-0.0379 0.74579,-0.1295 1.03269,-0.20367 0.28689,-0.0742 0.68571,-0.20965 0.88622,-0.30102 0.20052,-0.0914 0.5297,-0.28251 0.73152,-0.42474 0.20183,-0.14224 0.49592,-0.40899 0.65354,-0.59278 0.15759,-0.18378 0.37233,-0.51329 0.47719,-0.73217 0.10488,-0.21889 0.23144,-0.57287 0.28128,-0.78659 0.0686,-0.29381 0.0864,-0.54545 0.0733,-1.03166 -0.0122,-0.4767 -0.0431,-0.72547 -0.11696,-0.96154 -0.0548,-0.17516 -0.19372,-0.48552 -0.30872,-0.68968 -0.11501,-0.20417 -0.33546,-0.50159 -0.48991,-0.661 -0.15444,-0.1594 -0.42304,-0.38932 -0.59689,-0.51094 -0.17384,-0.12163 -0.46334,-0.28856 -0.6433,-0.37093 -0.17999,-0.0824 -0.47869,-0.19398 -0.66378,-0.24805 -0.18508,-0.0541 -0.54482,-0.1382 -0.79937,-0.18697 -0.44214,-0.0847 -0.62066,-0.0843 -3.99131,0.0106 l -3.52848,0.0993 0.26381,7.86936 z M 134.67804,122.629 c 2.63665,-0.10619 3.14187,-0.13829 3.49959,-0.22193 0.22993,-0.0538 0.53944,-0.1368 0.68778,-0.18454 0.14836,-0.0477 0.42597,-0.16466 0.61696,-0.25984 0.19096,-0.0952 0.47719,-0.26769 0.63605,-0.38339 0.15885,-0.1157 0.42826,-0.37128 0.59869,-0.56797 0.17769,-0.20506 0.38284,-0.51437 0.48091,-0.72515 0.094,-0.20218 0.19937,-0.49107 0.23399,-0.64199 0.0347,-0.15094 0.0559,-0.48584 0.0471,-0.74425 -0.009,-0.25839 -0.0533,-0.60788 -0.0992,-0.77667 -0.0458,-0.16876 -0.17001,-0.46537 -0.27589,-0.65914 -0.1059,-0.19379 -0.29853,-0.47831 -0.42808,-0.63227 -0.12955,-0.15396 -0.37384,-0.37722 -0.54281,-0.49612 -0.16899,-0.11889 -0.48842,-0.29678 -0.7098,-0.39534 -0.22141,-0.0985 -0.54883,-0.21729 -0.72761,-0.2639 -0.17877,-0.0466 -0.51568,-0.11573 -0.74868,-0.15362 -0.36065,-0.0586 -0.8821,-0.0566 -3.50659,0.013 l -3.08294,0.0818 0.2392,7.13544 z m 21.2037,16.78097 c -2.6014,0.0872 -3.44441,0.10116 -3.49098,0.0576 -0.0475,-0.0443 -0.17549,-3.45989 -0.56477,-15.07205 -0.38926,-11.61213 -0.49034,-15.02849 -0.44588,-15.07602 0.0436,-0.0466 0.8856,-0.0891 3.487,-0.1763 3.34004,-0.11197 3.431,-0.11218 3.48402,-0.021 0.0372,0.0641 0.2133,4.83062 0.55542,15.03621 0.3421,10.20513 0.48562,14.97268 0.45281,15.03965 -0.0468,0.0948 -0.13759,0.10036 -3.4776,0.21233 z m 8.34073,-0.28974 -2.8401,0.1099 0.0174,-0.13902 c 0.01,-0.0764 2.78597,-6.94919 6.16945,-15.27303 3.38368,-8.32385 6.18367,-15.17399 6.22269,-15.22283 0.0659,-0.0833 0.29461,-0.0965 3.4979,-0.20387 2.68271,-0.0899 3.43863,-0.10181 3.47877,-0.0547 0.0282,0.0331 3.30052,6.71148 7.27168,14.84126 3.97114,8.12978 7.2097,14.81167 7.19658,14.84922 -0.0198,0.0571 -0.50628,0.0821 -2.93387,0.15038 l -2.91015,0.0818 -0.36816,-0.12131 c -0.20249,-0.0667 -0.48536,-0.18696 -0.62858,-0.26721 -0.14322,-0.0802 -0.40558,-0.27816 -0.583,-0.43979 -0.17743,-0.16161 -0.40109,-0.41377 -0.497,-0.56034 -0.0959,-0.14655 -2.18997,-4.69944 -4.65348,-10.11754 -2.46352,-5.41811 -4.51334,-9.90094 -4.55515,-9.96242 -0.0419,-0.0615 -0.1487,-0.15219 -0.23751,-0.20227 -0.0889,-0.0502 -0.25035,-0.0881 -0.3595,-0.0844 -0.10917,0.004 -0.26763,0.0523 -0.35306,0.10831 -0.0852,0.0559 -0.18668,0.15392 -0.22542,0.21779 -0.0387,0.0638 -1.79116,4.67076 -3.89423,10.23773 -2.10309,5.56672 -3.89365,10.24761 -3.97894,10.40197 -0.0853,0.1543 -0.28651,0.42088 -0.4471,0.59239 -0.16058,0.17152 -0.41347,0.38993 -0.56196,0.48533 -0.14847,0.0954 -0.43142,0.23857 -0.62872,0.31815 l -0.35871,0.14466 z m 36.1004,-1.21094 c -2.349,0.09 -2.93946,0.0994 -2.96041,0.0497 -0.0144,-0.0344 -0.24776,-6.83957 -0.51831,-15.12211 l -0.49215,-15.05963 2.87776,-0.10925 c 2.68551,-0.10197 2.88464,-0.10334 2.98073,-0.0258 0.0567,0.046 3.50663,3.96876 7.66666,8.71738 4.16002,4.74853 7.63501,8.70506 7.7227,8.79223 l 0.159,0.15834 -0.5616,-18.23145 3.416,-0.12739 c 3.16748,-0.11812 3.42071,-0.12131 3.48072,-0.0454 0.0514,0.0653 0.16769,3.15309 0.56644,15.04822 0.40419,12.05676 0.48997,14.98345 0.44137,15.0544 -0.0562,0.0824 -0.22301,0.0926 -2.46098,0.15204 l -2.40069,0.0637 -0.39354,-0.12728 c -0.21645,-0.07 -0.55636,-0.22874 -0.75537,-0.35278 -0.199,-0.12401 -0.44544,-0.30792 -0.54766,-0.40867 -0.10221,-0.10073 -3.24173,-3.65669 -6.97658,-7.90228 -3.73502,-4.24538 -6.91648,-7.85379 -7.07024,-8.01896 -0.21485,-0.23086 -0.31039,-0.29903 -0.41416,-0.29555 -0.0741,0.003 -0.17708,0.0376 -0.22866,0.078 -0.092,0.072 -0.089,0.22827 0.15643,8.27548 l 0.25013,8.20203 -0.0967,0.22856 c -0.0532,0.12571 -0.16753,0.31476 -0.25409,0.42016 -0.0866,0.10537 -0.26877,0.25517 -0.40493,0.33287 l -0.24758,0.14128 z"
         style="fill:#000000;fill-opacity:1;stroke:none;stroke-width:2.02424;stroke-dasharray:none;stroke-opacity:1"
         id="path10-8"
         inkscape:label="armbian"
         sodipodi:nodetypes="csccccsccccssscsccsscssssccccscsccscsssscssssscscssssssssscscccccsscccccsssssscsssscssscccccccsccccccccscccccsssccsccsscsssccssssssccccsccccssscssssscssssssssssscccssssssssssscccssssssccsssssssscccsssssssccssssssscccsccssscscccccscccsscsccsssscscssccsssccccccscccccscscccssscccscccsscc" /><path
         id="path13-2"
         style="display:inline;fill:#ff0000;fill-opacity:1;stroke:none;stroke-width:2.02424;stroke-dasharray:none;stroke-opacity:1"
         d="m 182.61739,129.21496 c -0.0933,-0.0464 -0.94267,-0.0257 -4.62323,0.0977 -2.54624,0.0853 -4.62907,0.17433 -4.62869,0.19741 3.7e-4,0.0231 0.93811,1.62034 2.08224,3.5534 1.14413,1.93313 2.2461,3.797 2.44918,4.14006 0.30673,0.51816 0.37923,0.60997 0.43136,0.55273 0.0344,-0.0379 1.01549,-1.95598 2.18053,-4.26491 1.16504,-2.30895 2.11765,-4.22672 2.11673,-4.2647 1.7e-4,-0.003 -0.002,-0.008 -0.008,-0.0117 z m -137.789316,4.61045 c -0.0011,-0.0335 -1.5396,4.7e-4 -4.638608,0.10436 -4.573038,0.1533 -4.636026,0.15786 -4.607938,0.25233 0.0157,0.0526 1.100363,1.90442 2.408007,4.11528 1.307639,2.21084 2.400945,4.04732 2.429876,4.08148 0.02894,0.0343 0.06853,0.0447 0.08883,0.0225 0.02037,-0.0223 1.001238,-1.94919 2.179,-4.2825 1.177766,-2.33332 2.141755,-4.26585 2.140813,-4.29337 z"
         inkscape:label="a_tick" /></g></g></svg>
