<?xml version="1.0" encoding="UTF-8" standalone="no"?>
<svg
   version="1.1"
   viewBox="0 0 256 256"
   id="svg14"
   sodipodi:docname="armbian_cpu.svg"
   inkscape:version="1.3.2 (091e20e, 2023-11-25, custom)"
   inkscape:export-filename="configng_tux.png"
   inkscape:export-xdpi="192"
   inkscape:export-ydpi="192"
   width="256"
   height="256"
   xml:space="preserve"
   xmlns:inkscape="http://www.inkscape.org/namespaces/inkscape"
   xmlns:sodipodi="http://sodipodi.sourceforge.net/DTD/sodipodi-0.dtd"
   xmlns="http://www.w3.org/2000/svg"
   xmlns:svg="http://www.w3.org/2000/svg"><defs
     id="defs14" /><sodipodi:namedview
     id="namedview14"
     pagecolor="#505050"
     bordercolor="#ffffff"
     borderopacity="1"
     inkscape:showpageshadow="0"
     inkscape:pageopacity="0"
     inkscape:pagecheckerboard="1"
     inkscape:deskcolor="#d1d1d1"
     inkscape:zoom="3.7853745"
     inkscape:cx="114.12345"
     inkscape:cy="143.18266"
     inkscape:window-width="1898"
     inkscape:window-height="1161"
     inkscape:window-x="0"
     inkscape:window-y="0"
     inkscape:window-maximized="0"
     inkscape:current-layer="svg14"
     inkscape:export-bgcolor="#00000000" /><g
     transform="matrix(0.43588857,-0.43753732,0.43907611,0.4343815,-326.64237,234.61948)"
     style="display:inline;fill:#282828;stroke:#ff0000;stroke-width:4.85729;stroke-linecap:square;stroke-linejoin:round;paint-order:stroke fill markers"
     id="g2-2-2"
     inkscape:label="build_v2_cpu_full"><path
       d="m 531.27,266.49 c -18.24,0 -24.775,6.5634 -24.775,24.775 -2.7972,0 -17.438,-1.6276 -14.991,4.3366 1.5539,3.7891 11.675,2.0864 14.991,2.0864 v 7.3409 h -15.599 c 0.28666,8.7296 8.9244,6.423 15.599,6.423 v 6.4229 h -15.599 c 0.28668,8.6209 9.0411,6.4229 15.599,6.4229 v 6.4229 c -3.6404,0 -11.14,-1.425 -14.127,0.94235 -7.9785,6.3216 11.963,6.3985 14.127,6.3985 v 6.4229 h -15.599 v 5.5055 h 15.599 v 7.3409 c -6.6746,0 -15.313,-2.3064 -15.599,6.4229 6.4474,0 14.957,-1.9998 15.599,6.423 -6.5579,0 -15.313,-2.1978 -15.599,6.4229 6.4474,0 14.957,-1.9999 15.599,6.4229 -2.1649,0 -22.106,0.0767 -14.127,6.3985 2.988,2.3673 10.486,0.94233 14.127,0.94233 -0.3013,9.2518 -8.4634,7.3409 -15.599,7.3409 v 5.5055 h 15.599 v 7.3408 h -15.599 c 0.28666,8.7296 8.9244,6.423 15.599,6.423 v 6.4229 h -15.599 c 0.28666,8.7296 8.9244,6.423 15.599,6.423 v 6.4229 h -15.599 v 6.423 h 15.599 v 7.3408 h -15.599 v 5.5055 c 7.1357,0 15.298,-1.9116 15.599,7.3409 -6.6746,0 -15.313,-2.3064 -15.599,6.4229 l 15.599,0.9176 v 5.5055 c -6.5579,0 -15.313,-2.1978 -15.599,6.4229 h 15.599 v 7.3409 h -15.599 c 0.28666,8.7296 8.9244,6.423 15.599,6.423 v 7.3408 h -15.599 c 0.60794,7.8026 9.6604,5.5055 15.599,5.5055 0,18.486 6.2886,24.775 24.775,24.775 0,2.7972 -1.6276,17.438 4.3366,14.991 3.789,-1.5539 2.0865,-11.675 2.0865,-14.991 9.2518,0.30131 7.3409,8.4634 7.3409,15.599 8.7296,-0.28665 6.4229,-8.9244 6.4229,-15.599 h 6.4229 v 15.599 c 8.7296,-0.28665 6.423,-8.9244 6.423,-15.599 h 6.4229 c 0,3.6404 -1.4249,11.14 0.94234,14.127 6.3216,7.9784 6.3985,-11.963 6.3985,-14.127 h 6.4229 v 15.599 h 5.5055 v -15.599 h 7.3408 c 0,3.6404 -1.4249,11.14 0.94236,14.127 6.3216,7.9784 6.3985,-11.963 6.3985,-14.127 h 6.4229 v 15.599 c 8.6209,-0.28668 6.423,-9.0411 6.423,-15.599 h 6.4229 v 15.599 c 8.7296,-0.28665 6.423,-8.9244 6.423,-15.599 h 6.4229 c 0,2.9095 -1.7644,17.416 4.3139,14.991 3.8146,-1.5216 2.1092,-11.679 2.1092,-14.991 h 7.3408 c 0,2.9095 -1.7644,17.416 4.314,14.991 3.8146,-1.5217 2.1092,-11.679 2.1092,-14.991 h 6.423 v 15.599 h 6.4229 v -15.599 h 6.4229 c 0,2.1648 0.0767,22.106 6.3985,14.127 2.3674,-2.988 0.94236,-10.486 0.94236,-14.127 h 6.4229 v 15.599 c 8.6209,-0.28668 6.423,-9.0411 6.423,-15.599 h 6.4229 c 0,2.1648 0.077,22.106 6.3985,14.127 2.3674,-2.988 0.94237,-10.486 0.94237,-14.127 8.423,0.64261 6.4229,9.1516 6.4229,15.599 8.6209,-0.28668 6.423,-9.0411 6.423,-15.599 h 6.4229 v 15.599 h 6.423 v -15.599 h 7.3408 v 15.599 c 7.8026,-0.60793 5.5055,-9.6604 5.5055,-15.599 18.486,0 24.775,-6.2886 24.775,-24.775 5.9389,0 14.991,2.2972 15.599,-5.5055 -7.1356,0 -15.298,1.9116 -15.599,-7.3408 6.6746,0 15.313,2.3064 15.599,-6.423 -7.1356,0 -15.298,1.9116 -15.599,-7.3409 h 15.599 c -0.28665,-8.6209 -9.0417,-6.4229 -15.599,-6.4229 v -5.5055 l 15.599,-0.9176 c -0.28655,-8.7296 -8.9244,-6.4229 -15.599,-6.4229 0.30124,-9.2518 8.4633,-7.3409 15.599,-7.3409 v -5.5055 h -15.599 v -7.3408 h 15.599 c -0.28655,-8.7296 -8.9244,-6.423 -15.599,-6.423 v -6.4229 c 6.6746,0 15.313,2.3064 15.599,-6.423 h -15.599 v -6.4229 c 6.6746,0 15.313,2.3064 15.599,-6.423 h -15.599 v -7.3408 h 15.599 v -5.5055 c -7.1356,0 -15.298,1.9116 -15.599,-7.3409 3.6404,0 11.14,1.4249 14.127,-0.94233 7.9784,-6.3216 -11.963,-6.3985 -14.127,-6.3985 0.64246,-8.423 9.1516,-6.4229 15.599,-6.4229 -0.28655,-8.7296 -8.9244,-6.4229 -15.599,-6.4229 0.64259,-8.4231 9.1516,-6.423 15.599,-6.423 v -6.4229 h -15.599 v -7.3409 h 15.599 v -5.5055 h -15.599 v -6.4229 c 2.1647,0 22.106,-0.0771 14.127,-6.3985 -2.988,-2.3674 -10.486,-0.94235 -14.127,-0.94235 v -6.4229 c 6.6746,0 15.313,2.3064 15.599,-6.4229 -6.4474,0 -14.957,1.9998 -15.599,-6.4229 6.6746,0 15.313,2.3064 15.599,-6.423 -7.1356,0 -15.298,1.9116 -15.599,-7.3409 2.9095,0 17.416,1.7644 14.991,-4.3139 -1.5217,-3.8146 -11.679,-2.1092 -14.991,-2.1092 0,-18.218 -6.4413,-24.775 -24.775,-24.775 v -15.599 c -7.8026,0.60791 -5.5055,9.6604 -5.5055,15.599 h -7.3408 c 0,-2.9095 1.7644,-17.417 -4.314,-14.991 -3.8146,1.5217 -2.1092,11.679 -2.1092,14.991 h -6.4229 c 0,-6.6746 2.3064,-15.313 -6.423,-15.599 v 15.599 h -6.4229 c 0,-3.596 1.5526,-12.144 -1.5951,-14.652 -6.8474,-5.4551 -5.7455,12.046 -5.7455,14.652 h -6.4229 c 0,-2.7971 1.6276,-17.438 -4.3366,-14.991 -3.7891,1.5539 -2.0865,11.675 -2.0865,14.991 h -6.4229 c 0,-2.1648 -0.0769,-22.106 -6.3985,-14.127 -2.3672,2.9878 -0.94232,10.486 -0.94232,14.127 h -6.423 c 0,-3.3122 1.7055,-13.47 -2.1092,-14.991 -6.0784,-2.4247 -4.3139,12.082 -4.3139,14.991 h -6.423 c 0,-6.6746 2.3064,-15.313 -6.4229,-15.599 v 15.599 h -7.3408 c 0,-3.3122 1.7054,-13.47 -2.1092,-14.991 -6.0784,-2.4247 -4.314,12.082 -4.314,14.991 h -6.4229 c 0,-3.3122 1.7054,-13.47 -2.1092,-14.991 -6.0784,-2.4247 -4.314,12.082 -4.314,14.991 h -6.423 c 0,-6.5579 2.1978,-15.313 -6.4229,-15.599 v 15.599 h -6.4229 c 0,-2.6541 1.038,-19.691 -5.8702,-14.638 -3.0623,2.2398 -1.4705,11.253 -1.4705,14.638 h -7.3408 c 0,-2.8517 1.6823,-15.015 -2.7528,-15.015 -4.435,0 -2.7528,12.164 -2.7528,15.015 h -6.4229 c 0,-3.596 1.5526,-12.144 -1.5951,-14.652 -6.8474,-5.4551 -5.7456,12.046 -5.7456,14.652 h -6.4229 c 0,-6.5579 2.1978,-15.313 -6.4229,-15.599 v 15.599 h -6.4229 c 0,-2.9095 1.7644,-17.417 -4.314,-14.991 -3.8145,1.5217 -2.1092,11.679 -2.1092,14.991 h -7.3409 c 0,-3.0107 1.7488,-15.887 -3.5606,-15.172 -4.6127,0.62178 -2.8625,11.954 -2.8625,15.172 z"
       style="fill:#282828;stroke:#ff0000;stroke-width:1.61912;stroke-linecap:square;stroke-linejoin:round;stroke-dasharray:none;paint-order:stroke fill markers"
       id="path1-2"
       sodipodi:nodetypes="cccccccccccccccccccccccccccccccccccccccccccccccccccccccccccccccccccccccccccccccccccccccscccccccccccccccccccccccccccccccccccccccccccccccccccccccccccccccccccccccccccccccsccccccccccccccccccccscccccccccccccc" /><path
       d="m 124.10352,182.31636 c -0.95281,0.005 -1.43933,-0.001 -1.45056,-0.0194 -0.009,-0.0149 1.56149,-3.61378 3.4905,-7.99749 1.9291,-4.38367 3.5295,-8.01512 3.55671,-8.06965 l 0.0491,-0.0993 1.82849,-0.009 c 1.00565,-0.005 1.84284,-3.9e-4 1.86037,0.0106 0.0177,0.0108 1.66621,3.62575 3.66372,8.03243 1.99748,4.40693 3.62484,8.02391 3.61646,8.03768 -0.01,0.0154 -0.58887,0.0283 -1.50192,0.0332 -1.39297,0.007 -1.4993,0.005 -1.69039,-0.0428 -0.11214,-0.028 -0.28965,-0.0953 -0.39449,-0.14955 -0.12206,-0.0633 -0.2574,-0.16461 -0.37638,-0.28249 -0.10217,-0.10117 -0.2238,-0.24908 -0.27028,-0.32867 -0.0465,-0.0796 -1.08434,-2.52696 -2.30631,-5.43849 -1.222,-2.9117 -2.23918,-5.32691 -2.26039,-5.36745 -0.0212,-0.0406 -0.0768,-0.0967 -0.12342,-0.12477 -0.051,-0.0306 -0.13209,-0.0512 -0.20366,-0.0504 -0.0728,6.6e-4 -0.1527,0.0215 -0.20612,0.0544 -0.0598,0.0368 -0.11102,0.10582 -0.16243,0.21855 -0.0411,0.0908 -1.04036,2.51603 -2.22002,5.38996 -1.17965,2.87368 -2.17636,5.28465 -2.21488,5.35744 -0.0388,0.0726 -0.15869,0.22253 -0.2671,0.33283 -0.1338,0.13613 -0.25806,0.2324 -0.38684,0.29984 -0.10432,0.0547 -0.28122,0.12325 -0.39309,0.15249 -0.19017,0.0497 -0.29665,0.0536 -1.63707,0.0608 z m 19.57369,-0.10519 c -1.78596,0.01 -1.83448,0.008 -1.86134,-0.0411 -0.0188,-0.0347 -0.0395,-2.58213 -0.0652,-8.03592 -0.034,-7.22384 -0.0335,-7.98885 0.004,-8.0268 0.0372,-0.0375 0.40103,-0.0436 3.6116,-0.0608 2.05293,-0.011 3.74999,-0.009 3.99304,0.005 0.23251,0.0131 0.53568,0.0361 0.67376,0.0511 0.13807,0.0149 0.41163,0.0555 0.6079,0.0899 0.19627,0.0345 0.51157,0.10428 0.70066,0.15517 0.18908,0.0509 0.47477,0.13927 0.6348,0.1965 0.16006,0.0571 0.45781,0.18433 0.66161,0.28275 0.20382,0.0983 0.49927,0.26175 0.65646,0.36325 0.15722,0.1015 0.37189,0.25182 0.477,0.33408 0.10515,0.0822 0.30485,0.26246 0.4438,0.40049 0.13898,0.13797 0.3257,0.34595 0.41499,0.4621 0.0893,0.11621 0.21843,0.29692 0.28697,0.40168 0.0685,0.10481 0.18869,0.31756 0.26701,0.47286 0.0783,0.15529 0.18445,0.40155 0.23588,0.54722 0.0514,0.14568 0.12461,0.3888 0.16264,0.54028 0.038,0.15149 0.0884,0.40004 0.112,0.55235 0.0236,0.15233 0.0509,0.47885 0.0608,0.72561 0.0107,0.26826 0.006,0.59206 -0.0116,0.8052 -0.0162,0.1961 -0.0586,0.50517 -0.0941,0.68686 -0.0355,0.18167 -0.11537,0.48501 -0.17751,0.67408 -0.0622,0.18906 -0.16067,0.44502 -0.21898,0.56875 -0.0585,0.12365 -0.16548,0.32358 -0.23809,0.44413 -0.0726,0.12056 -0.20503,0.31609 -0.29435,0.4345 -0.0892,0.11842 -0.24024,0.29901 -0.33551,0.4013 -0.0952,0.10232 -0.27381,0.27512 -0.39677,0.38398 -0.12298,0.10886 -0.35983,0.28996 -0.52635,0.40238 -0.16654,0.11243 -0.44741,0.27906 -0.62421,0.37024 -0.17678,0.0912 -0.3268,0.1746 -0.3334,0.18538 -0.007,0.0107 0.79417,1.16157 1.77946,2.5573 0.98527,1.39575 1.78791,2.54961 1.78362,2.56415 -0.005,0.0172 -0.69466,0.0301 -1.99969,0.0371 l -1.99189,0.0107 -3.1125,-4.44449 -3.41905,0.005 0.0103,2.19289 c 0.007,1.46113 0.001,2.20996 -0.0168,2.24409 -0.0268,0.0497 -0.0749,0.0514 -1.86086,0.0611 z m 3.76135,-7.52457 c 1.64825,-0.0178 1.93888,-0.0268 2.13261,-0.066 0.12337,-0.025 0.33112,-0.0761 0.46168,-0.11367 0.13059,-0.0376 0.35598,-0.12576 0.50092,-0.19601 0.14493,-0.0703 0.35932,-0.20091 0.47637,-0.29033 0.11705,-0.0894 0.26634,-0.22581 0.33169,-0.30309 0.0654,-0.0773 0.1667,-0.21533 0.22522,-0.30683 0.0585,-0.0915 0.14332,-0.2562 0.18848,-0.36602 0.045,-0.10989 0.10657,-0.30879 0.13667,-0.4421 0.0438,-0.19435 0.0546,-0.33395 0.0545,-0.70437 -2.9e-4,-0.35286 -0.0117,-0.51487 -0.0491,-0.68607 -0.027,-0.12327 -0.0774,-0.30483 -0.11202,-0.40345 -0.0346,-0.0986 -0.11486,-0.2694 -0.1783,-0.37951 -0.0634,-0.11012 -0.20333,-0.29298 -0.31091,-0.40641 -0.10795,-0.11378 -0.29835,-0.27418 -0.42496,-0.35786 -0.12616,-0.0834 -0.33626,-0.19573 -0.46688,-0.2496 -0.13065,-0.0539 -0.34927,-0.12633 -0.48581,-0.16108 -0.13655,-0.0348 -0.39231,-0.0824 -0.56836,-0.10601 -0.27331,-0.0366 -0.57678,-0.0417 -2.07646,-0.0349 l -1.75639,0.008 0.006,2.79285 0.006,2.79285 z m 10.9769,7.44537 c -0.95325,0.005 -1.27884,-0.001 -1.30272,-0.0247 -0.0247,-0.0243 -0.0404,-1.84763 -0.0696,-8.04567 -0.0292,-6.19804 -0.0306,-8.02132 -0.006,-8.04602 0.0238,-0.0241 0.40115,-0.0337 1.53833,-0.0395 0.82875,-0.004 1.52134,0.001 1.53914,0.0126 0.0179,0.011 1.38572,1.99039 3.03991,4.39816 1.65409,2.40789 3.02159,4.38111 3.03905,4.38498 0.0174,0.004 1.32303,-1.94367 2.90161,-4.32767 1.57848,-2.38405 2.90322,-4.381 2.94415,-4.43798 l 0.0741,-0.1033 1.5176,-0.008 c 1.41849,-0.008 1.51916,-0.005 1.54197,0.0379 0.0145,0.0275 0.0436,3.28472 0.0719,8.07074 l 0.0476,8.02467 -2.69398,0.0145 -0.17538,-0.0818 c -0.0966,-0.0447 -0.2241,-0.12541 -0.28365,-0.17871 -0.0596,-0.0532 -0.14502,-0.15155 -0.18985,-0.21851 -0.0448,-0.0669 -0.10233,-0.18153 -0.12778,-0.25464 -0.0428,-0.12315 -0.0487,-0.44713 -0.0796,-4.40933 l -0.0333,-4.27625 -0.0558,-0.008 c -0.0484,-0.007 -0.33886,0.47315 -2.16221,3.57083 -1.57357,2.67331 -2.13997,3.61427 -2.23926,3.71934 -0.0731,0.0775 -0.19944,0.18379 -0.28076,0.23638 -0.0813,0.0526 -0.24074,0.12776 -0.35427,0.16705 -0.16147,0.0559 -0.25818,0.072 -0.44412,0.0739 -0.15396,0.002 -0.29359,-0.0138 -0.3964,-0.0437 -0.0873,-0.0254 -0.23887,-0.0876 -0.33696,-0.13803 -0.12157,-0.063 -0.23525,-0.1524 -0.35789,-0.28214 -0.1532,-0.16203 -0.48961,-0.69491 -2.28239,-3.61532 -1.75789,-2.86342 -2.11136,-3.42406 -2.15549,-3.41749 -0.0525,0.008 -0.0528,0.033 -0.0465,4.1917 0.004,2.96945 -0.002,4.20728 -0.0226,4.26415 -0.0156,0.0441 -0.0555,0.13192 -0.0872,0.19561 -0.0317,0.0637 -0.11159,0.17311 -0.17684,0.24352 -0.0652,0.0704 -0.16771,0.15706 -0.22775,0.19257 -0.0601,0.0355 -0.1736,0.084 -0.2524,0.10781 -0.123,0.0371 -0.32321,0.0441 -1.41414,0.05 z m 22.6868,-0.12904 c -3.32704,0.0249 -4.23325,0.0248 -4.25899,-8.1e-4 -0.0258,-0.0255 -0.0407,-1.72455 -0.0705,-8.04856 -0.0321,-6.81969 -0.0323,-8.02079 -0.001,-8.04682 0.0275,-0.023 1.04009,-0.0339 4.04749,-0.0434 3.58727,-0.0113 4.04131,-0.008 4.2998,0.0299 0.15897,0.0234 0.4147,0.0671 0.56832,0.0971 0.15363,0.03 0.45718,0.11181 0.67455,0.18189 0.21737,0.0701 0.53294,0.19262 0.70119,0.27242 0.16828,0.0798 0.4431,0.23439 0.61066,0.34371 0.2291,0.14943 0.39042,0.284 0.65031,0.54273 0.21231,0.21131 0.40534,0.43281 0.50037,0.57416 0.0851,0.1266 0.21238,0.34564 0.28285,0.48683 0.0705,0.14119 0.17061,0.38718 0.22253,0.54661 0.0519,0.15943 0.11282,0.38483 0.13535,0.50091 0.0225,0.1161 0.0558,0.36533 0.074,0.55395 0.0198,0.20583 0.0267,0.4793 0.017,0.68401 -0.009,0.1876 -0.0388,0.47795 -0.0666,0.64529 -0.0278,0.1673 -0.0963,0.4432 -0.15226,0.61311 -0.0559,0.1699 -0.15123,0.40881 -0.21178,0.53091 -0.0601,0.12229 -0.15961,0.2995 -0.22015,0.39421 -0.0606,0.0947 -0.17719,0.24966 -0.25918,0.34438 -0.082,0.0947 -0.14901,0.18502 -0.1489,0.20073 -1.6e-4,0.0156 0.0863,0.0865 0.19164,0.15751 0.10531,0.071 0.30056,0.23689 0.43395,0.36865 0.13792,0.13632 0.31805,0.35188 0.41779,0.50003 0.0964,0.14323 0.23531,0.38452 0.30862,0.53617 0.0733,0.15166 0.16947,0.38482 0.21372,0.51816 0.0442,0.13332 0.10593,0.37057 0.1371,0.52721 0.0313,0.15666 0.0708,0.45509 0.088,0.66324 0.0236,0.28466 0.024,0.48098 0.002,0.79194 -0.0161,0.2274 -0.053,0.53235 -0.0819,0.6777 -0.0289,0.14534 -0.0979,0.40235 -0.15319,0.57113 -0.0553,0.16879 -0.15342,0.41341 -0.21808,0.54357 -0.0646,0.1302 -0.18825,0.34343 -0.27479,0.47388 -0.0865,0.13043 -0.24106,0.32981 -0.34345,0.443 -0.10242,0.11319 -0.278,0.29052 -0.3902,0.39405 -0.11221,0.10353 -0.32805,0.27215 -0.47961,0.37476 -0.15153,0.10261 -0.43102,0.26334 -0.62103,0.3572 -0.19003,0.0939 -0.52456,0.23071 -0.74342,0.30411 -0.21886,0.0734 -0.54437,0.16377 -0.72337,0.20084 -0.17898,0.0371 -0.462,0.0887 -0.62893,0.11474 -0.27616,0.0431 -0.68447,0.0502 -4.52989,0.079 z m 1.13227,-3.0347 c 0.96128,-0.005 1.77632,-0.0212 1.93453,-0.038 0.15037,-0.016 0.39942,-0.0579 0.55345,-0.0931 0.15402,-0.0352 0.36865,-0.1015 0.4769,-0.14722 0.10829,-0.0457 0.28662,-0.14269 0.39636,-0.21551 0.1097,-0.0728 0.27055,-0.21066 0.35737,-0.3063 0.0868,-0.0956 0.20632,-0.26811 0.26551,-0.38327 0.0592,-0.11517 0.13181,-0.30216 0.16194,-0.41525 0.0411,-0.15563 0.0544,-0.28958 0.0549,-0.54903 8.6e-4,-0.25436 -0.0118,-0.3875 -0.0476,-0.5145 -0.0265,-0.0942 -0.0958,-0.26181 -0.15393,-0.37241 -0.0581,-0.11056 -0.17107,-0.2725 -0.25093,-0.35983 -0.0798,-0.0874 -0.21946,-0.21395 -0.31025,-0.28141 -0.0908,-0.0675 -0.24248,-0.16083 -0.33713,-0.20743 -0.0945,-0.0471 -0.25222,-0.11038 -0.34983,-0.14246 -0.098,-0.0312 -0.28822,-0.0819 -0.42313,-0.11167 -0.23432,-0.0518 -0.32945,-0.0543 -2.12716,-0.0542 l -1.88188,-2e-5 0.0198,4.20032 z m -0.0466,-6.29008 c 1.40671,-0.017 1.67644,-0.0266 1.86836,-0.0658 0.12335,-0.0252 0.28957,-0.0648 0.36935,-0.0881 0.0798,-0.0232 0.22954,-0.0814 0.33278,-0.1293 0.10324,-0.0479 0.25841,-0.13558 0.34484,-0.19489 0.0864,-0.0593 0.23392,-0.19157 0.32777,-0.29389 0.0979,-0.10666 0.21194,-0.26853 0.26737,-0.37949 0.0533,-0.10638 0.11332,-0.25906 0.13449,-0.33885 0.0208,-0.08 0.0372,-0.25825 0.0365,-0.39617 -7.9e-4,-0.1379 -0.0191,-0.32495 -0.0409,-0.41565 -0.0218,-0.0907 -0.0835,-0.2507 -0.13691,-0.35562 -0.0534,-0.10498 -0.15174,-0.25955 -0.21841,-0.34359 -0.0667,-0.084 -0.19343,-0.20676 -0.28166,-0.2727 -0.0882,-0.0659 -0.25574,-0.16554 -0.37218,-0.22148 -0.11664,-0.0555 -0.28914,-0.12411 -0.3837,-0.15166 -0.0946,-0.0275 -0.27302,-0.0695 -0.39663,-0.0931 -0.19128,-0.0367 -0.46921,-0.0434 -1.86888,-0.0457 l -1.64418,-0.003 0.0179,3.80859 z m 11.042,9.26674 c -1.38764,0.007 -1.83711,0.002 -1.86125,-0.0217 -0.0246,-0.0243 -0.0404,-1.84763 -0.0696,-8.04567 -0.0292,-6.19803 -0.0306,-8.02133 -0.006,-8.04601 0.024,-0.0242 0.4733,-0.0342 1.86094,-0.0417 1.78166,-0.01 1.83013,-0.008 1.85698,0.0411 0.0188,0.0347 0.0395,2.57914 0.0652,8.02642 0.0256,5.44705 0.0289,7.9915 0.0104,8.02672 -0.0268,0.0497 -0.0749,0.0515 -1.8565,0.061 z m 4.44928,-0.0293 -1.5152,0.016 0.0115,-0.0739 c 0.007,-0.0406 1.59134,-3.66385 3.52217,-8.05179 1.93093,-4.38794 3.52824,-7.99875 3.54982,-8.02419 0.0364,-0.0435 0.15848,-0.047 1.86719,-0.0562 1.43101,-0.008 1.83403,-0.003 1.8547,0.023 0.0145,0.0181 1.65584,3.62844 3.6473,8.02327 1.99144,4.39482 3.61473,8.00656 3.60716,8.02639 -0.0118,0.03 -0.27107,0.0362 -1.5658,0.0361 l -1.55209,-6e-5 -0.19433,-0.0702 c -0.10702,-0.0383 -0.25597,-0.10655 -0.33094,-0.15177 -0.0751,-0.0449 -0.21186,-0.15444 -0.30393,-0.24327 -0.0921,-0.0888 -0.2074,-0.22666 -0.25626,-0.30626 -0.0489,-0.0796 -1.09491,-2.53885 -2.32455,-5.46504 -1.22966,-2.92619 -2.2532,-5.34743 -2.27455,-5.38085 -0.0214,-0.0334 -0.0769,-0.0834 -0.12347,-0.1114 -0.0468,-0.0277 -0.13189,-0.0511 -0.19028,-0.0504 -0.0582,4.9e-4 -0.14343,0.0239 -0.18981,0.0524 -0.0463,0.0285 -0.10181,0.0793 -0.12346,0.11276 -0.0219,0.0333 -1.02623,2.46381 -2.23241,5.40084 -1.20624,2.93689 -2.23228,5.40611 -2.2801,5.48714 -0.0478,0.081 -0.15918,0.22012 -0.24736,0.30918 -0.0883,0.089 -0.22633,0.20173 -0.30692,0.25038 -0.0806,0.0486 -0.23357,0.12074 -0.33993,0.16022 l -0.19339,0.0718 z m 19.25676,-0.1039 c -1.25318,0.0127 -1.56798,0.009 -1.57838,-0.0179 -0.007,-0.0185 -0.027,-3.65093 -0.0441,-8.07168 l -0.0311,-8.03795 1.53525,-0.0151 c 1.4327,-0.0141 1.53884,-0.0118 1.58885,0.031 0.0295,0.0254 1.80779,2.16898 3.9518,4.76363 2.14402,2.5946 3.93513,4.75659 3.98052,4.80438 l 0.0823,0.0868 -0.0194,-9.73038 1.82237,-0.0167 c 1.68979,-0.0154 1.82479,-0.0134 1.8556,0.028 0.0264,0.0356 0.041,1.68391 0.0709,8.03299 0.0303,6.43536 0.0311,7.9973 0.004,8.03441 -0.0312,0.0431 -0.12028,0.046 -1.31382,0.0441 l -1.28032,-0.002 -0.20776,-0.0738 c -0.11437,-0.0404 -0.29308,-0.13008 -0.39713,-0.19943 -0.10413,-0.0692 -0.23266,-0.17087 -0.2856,-0.22611 -0.0529,-0.0552 -1.67141,-1.99859 -3.59657,-4.31862 -1.92524,-2.31991 -3.56527,-4.29185 -3.64468,-4.38224 -0.11093,-0.12637 -0.16082,-0.1641 -0.21618,-0.1638 -0.0395,4.7e-4 -0.0949,0.0174 -0.12302,0.0382 -0.0502,0.037 -0.0509,0.12038 -0.0437,4.41526 l 0.007,4.37749 -0.0549,0.12048 c -0.0305,0.0661 -0.0941,0.16533 -0.14182,0.22025 -0.0478,0.0549 -0.14718,0.13202 -0.2209,0.17142 l -0.1341,0.0716 z"
       style="display:inline;fill:#c0c0c0;fill-opacity:1;stroke:none;stroke-width:0.614221;stroke-dasharray:none;stroke-opacity:1;paint-order:markers stroke fill"
       id="path10-8-8-4"
       inkscape:label="armbian"
       sodipodi:nodetypes="csccccsccccssscsccsscssssccccscsccscsssscssssscscssssssssscscccccsscccccsssssscsssscssscccccccsccccccccscccccsssccsccsscsssccssssssccccsccccssscssssscssssssssssscccssssssssssscccssssssccsssssssscccsssssssccssssssscccsccssscscccccscccsscsccsssscscssccsssccccccscccccscscccssscccscccsscc"
       transform="matrix(1.8572607,1.8707539,-1.8707089,1.8571281,634.98623,-261.90393)" /><path
       id="path13-2-7-2"
       style="display:inline;fill:#ff0000;fill-opacity:1;stroke:none;stroke-width:0.614221;stroke-dasharray:none;stroke-opacity:1;paint-order:markers stroke fill"
       d="m 207.63408,176.90965 c -0.0489,-0.0264 -0.50196,-0.0279 -2.46526,-0.0173 -1.35821,0.007 -2.46954,0.0235 -2.46969,0.0358 1e-4,0.0125 0.47506,0.87813 1.0551,1.92612 0.58004,1.04801 1.13867,2.05846 1.24163,2.24445 0.1555,0.28091 0.19273,0.33096 0.22138,0.30122 0.0193,-0.0196 0.5712,-1.0278 1.2275,-2.24155 0.65631,-1.21377 1.19339,-2.22212 1.19349,-2.24238 3.2e-4,-0.002 -0.001,-0.005 -0.004,-0.006 z m -73.49972,0.39044 c 3e-5,-0.0178 -0.82048,-0.0229 -2.47356,-0.014 -2.43936,0.0131 -2.47299,0.0146 -2.45947,0.0654 0.008,0.0283 0.55716,1.03205 1.22007,2.23062 0.66291,1.19856 1.21735,2.19428 1.23224,2.21293 0.0149,0.0187 0.0357,0.0251 0.0468,0.0136 0.0115,-0.0115 0.5635,-1.02438 1.22696,-2.25095 0.66346,-1.22657 1.20684,-2.24262 1.20676,-2.25732 z"
       transform="matrix(1.8572607,1.8707539,-1.8707089,1.8571281,634.98623,-261.90393)"
       inkscape:label="a_tick" /></g></svg>
