<?xml version="1.0" encoding="UTF-8" standalone="no"?>
<svg
   version="1.1"
   viewBox="0 0 256 48"
   id="svg14"
   sodipodi:docname="armbian-font.svg"
   inkscape:version="1.3.2 (091e20e, 2023-11-25, custom)"
   inkscape:export-filename="armbian_logo.png"
   inkscape:export-xdpi="48"
   inkscape:export-ydpi="48"
   width="256"
   height="48"
   xmlns:inkscape="http://www.inkscape.org/namespaces/inkscape"
   xmlns:sodipodi="http://sodipodi.sourceforge.net/DTD/sodipodi-0.dtd"
   xmlns="http://www.w3.org/2000/svg"
   xmlns:svg="http://www.w3.org/2000/svg">
  <defs
     id="defs14" />
  <sodipodi:namedview
     id="namedview14"
     pagecolor="#505050"
     bordercolor="#ffffff"
     borderopacity="1"
     inkscape:showpageshadow="0"
     inkscape:pageopacity="0"
     inkscape:pagecheckerboard="1"
     inkscape:deskcolor="#d1d1d1"
     inkscape:zoom="2.671771"
     inkscape:cx="124.63643"
     inkscape:cy="-23.579865"
     inkscape:window-width="1920"
     inkscape:window-height="1174"
     inkscape:window-x="-11"
     inkscape:window-y="-11"
     inkscape:window-maximized="1"
     inkscape:current-layer="svg14"
     inkscape:export-bgcolor="#00000000" />
  <path
     d="M 7.0557303,42.723287 H 3.6197647 l 0.028909,-0.16825 C 3.6645767,42.462537 7.3637633,34.113129 11.868979,24.001561 16.374257,13.889382 20.095398,5.5404706 20.13818,5.4480856 l 0.0778,-0.16825 h 8.594956 l 0.08721,0.137659 c 0.04797,0.07571 3.802732,8.4572034 8.343764,18.6250584 4.541215,10.168467 8.256977,18.530834 8.256977,18.584064 0,0.0867 -0.359439,0.0964 -3.560096,0.0957 -2.858894,-6.1e-4 -3.623535,-0.0176 -3.882062,-0.0865 -0.177095,-0.0472 -0.493378,-0.16677 -0.702852,-0.26572 -0.209474,-0.099 -0.551427,-0.30914 -0.759874,-0.46707 -0.20846,-0.15794 -0.506371,-0.45674 -0.662025,-0.66401 -0.155642,-0.20728 -0.323947,-0.45615 -0.374009,-0.55306 -0.05006,-0.0969 -2.386333,-5.728359 -5.191689,-12.514189 -2.805355,-6.785708 -5.150006,-12.40712 -5.210268,-12.490939 -0.06026,-0.08382 -0.203907,-0.20258 -0.319168,-0.26323 -0.137319,-0.07226 -0.289391,-0.100523 -0.441085,-0.08198 -0.127339,0.01556 -0.298847,0.07245 -0.381135,0.12642 -0.08229,0.05398 -0.192129,0.163087 -0.244085,0.242471 -0.05196,0.07938 -2.404913,5.702417 -5.228787,12.495834 -2.823874,6.79305 -5.222615,12.501953 -5.330548,12.685503 -0.107952,0.18389 -0.378183,0.51615 -0.600529,0.73834 -0.267144,0.26698 -0.56772,0.48899 -0.886204,0.65459 -0.265066,0.13782 -0.650901,0.29425 -0.857479,0.34764 -0.321184,0.083 -0.872758,0.0971 -3.8115327,0.0971 z m 45.2715807,-0.0149 c -3.428326,0.0125 -4.331888,-2.4e-4 -4.35499,-0.0612 -0.01604,-0.0423 -0.02213,-8.460262 -0.01352,-18.707042 l 0.01565,-18.6299524 h 9.075952 c 8.340708,0 9.149904,0.0089 9.992714,0.109577 0.50422,0.06027 1.384312,0.203296 1.955761,0.317841 0.571449,0.114545 1.430883,0.334721 1.9098,0.48928 0.478935,0.154558 1.166122,0.404878 1.527082,0.556267 0.360967,0.151389 0.917986,0.414472 1.237752,0.58462 0.319767,0.170147 0.844461,0.483804 1.165878,0.696986 0.321442,0.213202 0.802718,0.56487 1.069557,0.78148 0.266839,0.216609 0.761891,0.679733 1.100115,1.029144 0.338237,0.3494054 0.767025,0.8417434 0.952822,1.0941204 0.185798,0.252376 0.447943,0.637823 0.582517,0.856549 0.134575,0.218726 0.314786,0.521578 0.400467,0.673003 0.08568,0.151426 0.285028,0.578171 0.442986,0.948323 0.157964,0.370152 0.378238,0.989621 0.489502,1.376597 0.111265,0.386977 0.263172,1.047744 0.337565,1.468371 0.104101,0.588578 0.142281,1.096016 0.165726,2.202556 0.02371,1.119266 0.0078,1.624446 -0.07184,2.280441 -0.05626,0.463479 -0.182808,1.172739 -0.28122,1.576173 -0.0984,0.403417 -0.278757,1.001613 -0.400778,1.329304 -0.122021,0.327685 -0.345729,0.851777 -0.497136,1.164602 -0.151406,0.31286 -0.48913,0.891056 -0.750523,1.284824 -0.261369,0.393792 -0.722837,0.994087 -1.025552,1.334015 -0.302666,0.339909 -0.821175,0.845169 -1.152188,1.122814 -0.331043,0.27765 -0.890421,0.696313 -1.243069,0.930335 -0.352648,0.234034 -0.978247,0.596011 -1.390179,0.804422 -0.411938,0.208386 -0.749117,0.398192 -0.74924,0.421784 -1.22e-4,0.0236 1.842449,2.686017 4.09463,5.916432 2.25218,3.230414 4.094874,5.916124 4.094874,5.968254 0,0.0846 -0.492143,0.0947 -4.636803,0.0947 H 71.734825 L 68.258277,37.694 C 66.346154,34.928018 64.71725,32.587619 64.638409,32.493093 l -0.143327,-0.171885 -7.780872,0.03149 -0.06112,10.339779 z m 8.725137,-17.378166 c 4.036873,-0.02392 4.317769,-0.03266 4.957853,-0.154314 0.373208,-0.07093 0.950744,-0.21607 1.283468,-0.322539 0.332724,-0.10647 0.7974,-0.290102 1.032703,-0.408073 0.235302,-0.117971 0.576882,-0.313148 0.75908,-0.433732 0.182179,-0.120584 0.491244,-0.367539 0.686838,-0.548791 0.195564,-0.181252 0.482664,-0.498788 0.638006,-0.705614 0.15533,-0.206856 0.365874,-0.541474 0.467867,-0.743607 0.101993,-0.202133 0.250313,-0.558268 0.329594,-0.791452 0.07928,-0.233159 0.183793,-0.646144 0.232253,-0.917731 0.04846,-0.271594 0.105373,-0.714057 0.126477,-0.983258 0.0211,-0.269201 0.0079,-0.792308 -0.02936,-1.16246 -0.03725,-0.370152 -0.134269,-0.925624 -0.215586,-1.23441 -0.08132,-0.308793 -0.22842,-0.739325 -0.326893,-0.956705 -0.09847,-0.217405 -0.296933,-0.569067 -0.441024,-0.781479 -0.144091,-0.212406 -0.435077,-0.556935 -0.646623,-0.765633 -0.211565,-0.20868 -0.571223,-0.502782 -0.799234,-0.653547 -0.22803,-0.150778 -0.552111,-0.34311 -0.720209,-0.427406 -0.168073,-0.08429 -0.540175,-0.236059 -0.82692,-0.337261 -0.286721,-0.101201 -0.795506,-0.240286 -1.130674,-0.309073 -0.33515,-0.06879 -0.876425,-0.154302 -1.202854,-0.190026 -0.356902,-0.03906 -2.178045,-0.06495 -4.568533,-0.06495 h -3.975022 v 6.413721 c 0,3.527638 0.02014,6.433911 0.04476,6.458995 0.02461,0.02464 1.970429,0.03339 4.324065,0.01945 z m 25.501285,17.380006 c -2.532526,0.0139 -3.169921,0.002 -3.193757,-0.0612 -0.0164,-0.0432 -0.02277,-8.462102 -0.01417,-18.70827 l 0.01565,-18.6299524 3.58277,-0.01578 c 3.239412,-0.01427 3.590837,-0.0063 3.667051,0.08333 0.04636,0.05451 3.1808,4.6594464 6.965568,10.2333204 3.784635,5.573752 6.903215,10.134205 6.930105,10.134205 0.027,0 3.12231,-4.597836 6.87878,-10.217412 L 118.215,5.3110546 h 7.19537 l 0.0365,8.8714064 c 0.0201,4.879273 0.0474,13.289978 0.0608,18.691135 l 0.0244,9.819731 -3.09762,0.0159 c -2.98254,0.0153 -3.10997,0.0113 -3.42876,-0.10815 -0.1821,-0.0682 -0.46266,-0.21125 -0.62346,-0.31789 -0.16081,-0.10663 -0.41203,-0.35656 -0.55824,-0.5554 -0.15197,-0.20665 -0.3185,-0.53213 -0.38875,-0.75982 -0.12093,-0.39194 -0.12289,-0.55382 -0.12289,-10.169076 0,-8.405198 -0.0123,-9.787302 -0.0879,-9.889476 -0.078,-0.105393 -0.098,-0.108433 -0.17732,-0.02699 -0.0492,0.05048 -2.24099,3.712225 -4.8707,8.137221 -2.6297,4.424996 -4.85945,8.159246 -4.95498,8.298741 -0.0955,0.13941 -0.3405,0.404622 -0.54443,0.589362 -0.20393,0.184739 -0.54301,0.420767 -0.75352,0.524502 -0.21051,0.103734 -0.56002,0.230446 -0.77674,0.281576 -0.21672,0.0511 -0.5728,0.093 -0.79129,0.093 -0.21849,0 -0.5732,-0.0415 -0.78824,-0.0923 -0.21503,-0.0507 -0.58631,-0.193505 -0.82508,-0.317258 -0.29008,-0.150343 -0.57368,-0.368121 -0.85467,-0.656301 -0.37608,-0.385685 -0.93278,-1.276014 -5.262275,-8.415599 -3.699567,-6.100896 -4.86905,-7.984265 -4.957793,-7.984265 -0.11341,0 -0.116777,0.224226 -0.146633,9.761606 l -0.03056,9.761607 -0.230163,0.46617 c -0.15621,0.31638 -0.329172,0.55529 -0.53831,0.74355 -0.169479,0.15254 -0.464701,0.3543 -0.656036,0.44836 l -0.347893,0.17103 z m 52.049507,0.0132 c -7.59202,0 -9.56611,-0.0157 -9.58934,-0.0765 -0.016,-0.0421 -0.022,-8.460266 -0.0134,-18.706434 l 0.0157,-18.6299534 h 9.4121 c 8.76425,0 9.46282,0.0076 10.14551,0.110514 0.40337,0.06078 1.03319,0.17788 1.39953,0.260225 0.36636,0.08234 0.9989,0.260465 1.4057,0.395824 0.40677,0.135366 1.15212,0.451438 1.65634,0.702371 0.50422,0.25095 1.17804,0.641922 1.49738,0.868786 0.31934,0.226863 0.898,0.72978 1.28598,1.117552 0.47585,0.475654 0.84849,0.919812 1.14534,1.3650954 0.24198,0.363024 0.54739,0.886162 0.67871,1.16246 0.1313,0.276329 0.32145,0.737979 0.42256,1.025902 0.10111,0.287923 0.23965,0.783498 0.30787,1.101278 0.0682,0.317768 0.15338,0.845109 0.18925,1.171882 0.0359,0.326762 0.0652,0.954196 0.0652,1.394279 0,0.440083 -0.0293,1.067567 -0.0652,1.394279 -0.0359,0.326762 -0.12102,0.854103 -0.18925,1.171883 -0.0682,0.317767 -0.20709,0.813355 -0.30859,1.101278 -0.10151,0.287923 -0.30864,0.770894 -0.46031,1.073195 -0.15167,0.302337 -0.40724,0.74477 -0.56794,0.983135 -0.16071,0.238402 -0.43222,0.586828 -0.60336,0.77426 -0.17114,0.187456 -0.31118,0.353076 -0.31118,0.368047 0,0.01497 0.24178,0.207952 0.53728,0.42885 0.29549,0.220898 0.77417,0.650855 1.06375,0.955481 0.28956,0.304607 0.67669,0.782274 0.86029,1.061509 0.1836,0.279242 0.46351,0.766368 0.62205,1.082496 0.15852,0.31614 0.39557,0.896195 0.52678,1.289045 0.13121,0.392845 0.29617,1.042727 0.36659,1.444204 0.0797,0.454467 0.14089,1.135724 0.1621,1.805239 0.0207,0.652079 0.006,1.350412 -0.0383,1.774282 -0.0398,0.38445 -0.12775,0.974325 -0.19548,1.310826 -0.0677,0.336502 -0.20549,0.859609 -0.30613,1.16246 -0.10064,0.302852 -0.31665,0.831404 -0.48001,1.174575 -0.16336,0.34317 -0.44035,0.838745 -0.61552,1.101278 -0.17518,0.262532 -0.46641,0.659482 -0.64717,0.882062 -0.18078,0.222605 -0.55868,0.625775 -0.83975,0.895895 -0.2811,0.27014 -0.7149,0.64204 -0.96395,0.82644 -0.24905,0.18441 -0.64473,0.45349 -0.87918,0.59795 -0.23443,0.14447 -0.72876,0.40647 -1.09852,0.58223 -0.36976,0.17577 -0.93357,0.41682 -1.25291,0.53567 -0.31934,0.11885 -0.8969,0.29822 -1.28347,0.39859 -0.38657,0.10037 -1.04664,0.23949 -1.46682,0.30915 -0.42018,0.0697 -1.04878,0.15489 -1.3969,0.18938 -0.40233,0.0399 -4.11621,0.0627 -10.19318,0.0627 z m 2.74149,-7.037783 c 1.95912,-9.85e-4 3.90871,-0.02719 4.3325,-0.05824 0.42377,-0.03105 1.05562,-0.114625 1.40411,-0.185719 0.34851,-0.07109 0.87294,-0.219252 1.16545,-0.329233 0.2925,-0.109987 0.69197,-0.294047 0.8878,-0.409021 0.19582,-0.114973 0.59303,-0.443074 0.88284,-0.729107 0.38498,-0.380002 0.58509,-0.63611 0.74306,-0.950953 0.11893,-0.237002 0.27355,-0.622467 0.34361,-0.85655 0.0701,-0.234101 0.15205,-0.652874 0.18219,-0.93058 0.0312,-0.287476 0.0323,-0.705797 0.003,-0.971266 -0.0287,-0.2565 -0.0969,-0.621243 -0.15151,-0.810479 -0.0546,-0.189267 -0.19819,-0.536849 -0.31909,-0.772424 -0.15948,-0.310714 -0.38027,-0.588707 -0.80431,-1.012687 -0.51231,-0.512253 -0.66373,-0.623568 -1.22626,-0.901273 -0.35331,-0.174431 -0.9027,-0.384047 -1.22235,-0.466398 -0.31934,-0.08226 -0.78689,-0.186036 -1.039,-0.230613 -0.35053,-0.06198 -1.4362,-0.08104 -4.61437,-0.08104 h -4.15599 l -0.0158,4.772204 c -0.009,2.624713 -0.003,4.806589 0.0134,4.848683 0.0229,0.06 0.79655,0.07609 3.59115,0.07469 z m -0.39726,-14.56073 c 1.74062,-5.33e-4 3.49017,-0.02796 3.88786,-0.06094 0.3977,-0.03299 0.97526,-0.111829 1.28347,-0.175214 0.3082,-0.06338 0.78041,-0.200622 1.04933,-0.304986 0.26892,-0.104365 0.66459,-0.293522 0.87924,-0.420346 0.21464,-0.126824 0.57743,-0.415757 0.8062,-0.642045 0.22874,-0.226313 0.52568,-0.597994 0.65988,-0.825959 0.13418,-0.227964 0.30409,-0.593442 0.37757,-0.812192 0.0758,-0.225554 0.14717,-0.625771 0.16493,-0.924645 0.0222,-0.373578 8.4e-4,-0.664071 -0.0734,-0.998003 -0.0576,-0.259088 -0.23111,-0.724029 -0.38561,-1.033182 -0.22143,-0.443069 -0.37959,-0.659788 -0.74674,-1.023087 -0.32837,-0.324963 -0.61398,-0.538171 -0.9681,-0.722561 -0.27625,-0.143876 -0.65988,-0.316624 -0.85259,-0.383881 -0.1927,-0.06726 -0.59782,-0.175574 -0.90038,-0.240703 -0.30256,-0.06513 -0.94885,-0.147296 -1.43626,-0.182604 -0.50081,-0.03628 -2.20188,-0.05638 -3.91152,-0.04623 l -3.02532,0.01796 -0.0158,4.313339 c -0.009,2.372336 -0.003,4.347723 0.0134,4.389816 0.0228,0.05984 0.71771,0.07627 3.19394,0.07551 z m 26.03606,21.583213 c -3.42833,0.0125 -4.33189,-2.4e-4 -4.35499,-0.0612 -0.016,-0.0423 -0.0221,-8.460262 -0.0135,-18.707042 l 0.0156,-18.6299534 h 8.67868 V 42.692207 Z m 10.17301,0.0149 h -3.44739 l 0.0286,-0.13766 c 0.0157,-0.0757 3.73624,-8.46638 8.26798,-18.645247 4.53162,-10.17948 8.26614,-18.5424624 8.29854,-18.5846784 0.0466,-0.06071 0.96602,-0.07358 4.36892,-0.06118 l 4.30983,0.0157 8.33459,18.6562614 c 4.61376,10.32754 8.31137,18.679514 8.28265,18.708874 -0.0288,0.0288 -1.70005,0.0444 -3.71399,0.0347 l -3.66167,-0.0176 -0.42783,-0.17116 c -0.2353,-0.0941 -0.60101,-0.28406 -0.81268,-0.42204 -0.21166,-0.13799 -0.54656,-0.42755 -0.74416,-0.64346 -0.22377,-0.24446 -0.44996,-0.58148 -0.59958,-0.89338 -0.13213,-0.27545 -2.50569,-5.975533 -5.2745,-12.667142 -2.76887,-6.691488 -5.09354,-12.230304 -5.16596,-12.308006 -0.0724,-0.07823 -0.24402,-0.175935 -0.38133,-0.217117 -0.21218,-0.06363 -0.29086,-0.05912 -0.52425,0.03011 -0.17656,0.0675 -0.31717,0.174503 -0.39382,0.299694 -0.0656,0.107093 -2.40717,5.701133 -5.20354,12.430981 -2.79637,6.730032 -5.16969,12.40161 -5.27402,12.60352 -0.11655,0.22555 -0.38054,0.55812 -0.6847,0.86254 -0.36817,0.3685 -0.61166,0.55248 -0.95013,0.71797 -0.25032,0.12239 -0.61906,0.26423 -0.8194,0.31521 -0.30416,0.0774 -0.93314,0.0927 -3.81172,0.0927 z m 44.58279,0 h -3.58357 V 5.2795756 h 7.20637 l 0.35428,0.41539 c 0.19487,0.228466 4.34094,5.2924974 9.21347,11.2532254 4.87253,5.960912 8.88099,10.824339 8.90788,10.80782 0.0268,-0.01657 0.0487,-5.080807 0.0487,-11.253837 V 5.2783156 l 8.58701,0.03142 V 42.692007 h -6.11175 l -0.47394,-0.17456 c -0.26066,-0.096 -0.63195,-0.27714 -0.82508,-0.40252 -0.19313,-0.12538 -0.47492,-0.35042 -0.62621,-0.50008 -0.15127,-0.14965 -4.00167,-4.813131 -8.55646,-10.363022 -4.55478,-5.550135 -8.32298,-10.139099 -8.3731,-10.197834 -0.0501,-0.05873 -0.16217,-0.123337 -0.24833,-0.143668 -0.10702,-0.02525 -0.20386,0.0013 -0.30559,0.08375 l -0.14893,0.120718 -0.0611,20.301446 -0.18444,0.361 c -0.12351,0.24177 -0.28189,0.43474 -0.4795,0.58425 -0.16228,0.12278 -0.39876,0.25434 -0.52551,0.29236 -0.15989,0.048 -1.32753,0.0691 -3.81397,0.0691 z M 24.623106,41.675217 c -0.06494,0.0701 -0.102488,0.0446 -0.225475,-0.15295 -0.08116,-0.13035 -1.378078,-2.49079 -2.881997,-5.24539 -1.50398,-2.754602 -2.719729,-5.04679 -2.701761,-5.093716 0.02772,-0.0723 0.907901,-0.08294 5.764299,-0.06972 5.381092,0.01465 5.731051,0.02206 5.72335,0.121018 -0.0045,0.05797 -1.266477,2.411982 -2.804316,5.23107 -1.5379,2.819088 -2.831208,5.163468 -2.874051,5.209718 z m 170.059494,-0.006 c -0.0675,0.013 -0.89562,-1.44983 -2.95222,-5.214915 -1.57219,-2.878129 -2.84148,-5.26056 -2.82064,-5.294272 0.0248,-0.04021 2.00209,-0.06128 5.75061,-0.06128 4.98597,0 5.71718,0.01151 5.74749,0.0905 0.0201,0.0524 -1.15805,2.273711 -2.79838,5.276162 -1.61907,2.963535 -2.87326,5.193445 -2.92686,5.203785 z"
     style="display:inline;fill:#000000;stroke:#ffffff;stroke-width:1.00001"
     id="path9" />
  <g
     id="g2">
    <path
       id="path1"
       style="fill:#ff0000;stroke:none;stroke-width:0.999999;stroke-linejoin:round;stroke-miterlimit:3.9;paint-order:markers stroke fill"
       d="M 22.929688 31.230469 C 19.351416 31.239808 19.279099 31.307319 19.398438 31.763672 C 19.47511 32.056868 20.568043 34.200424 21.828125 36.527344 C 23.42946 39.484433 24.257372 40.757812 24.578125 40.757812 C 24.851907 40.757813 25.268337 40.303864 25.609375 39.632812 C 25.923777 39.014174 27.066095 36.870619 28.148438 34.869141 L 30.115234 31.230469 L 24.6875 31.230469 C 24.023575 31.230469 23.440869 31.229135 22.929688 31.230469 z M 194.78906 31.230469 C 190.15748 31.230469 189.49609 31.281257 189.49609 31.644531 C 189.49609 31.872872 190.57806 34.024125 191.90234 36.423828 C 193.611 39.520024 194.43114 40.762268 194.72656 40.705078 C 195.08104 40.63646 200.06524 31.996199 200.07812 31.427734 C 200.08059 31.31856 197.7003 31.230469 194.78906 31.230469 z " />
  </g>
</svg>
