<?xml version="1.0" encoding="UTF-8" standalone="no"?>
<svg
   version="1.1"
   viewBox="0 0 256 256"
   id="svg14"
   sodipodi:docname="armbian-logo_light_v1.5.svg"
   inkscape:version="1.3.2 (091e20e, 2023-11-25, custom)"
   inkscape:export-filename="armbian_logo_dark_1.5.png"
   inkscape:export-xdpi="192"
   inkscape:export-ydpi="192"
   width="256"
   height="256"
   xml:space="preserve"
   xmlns:inkscape="http://www.inkscape.org/namespaces/inkscape"
   xmlns:sodipodi="http://sodipodi.sourceforge.net/DTD/sodipodi-0.dtd"
   xmlns="http://www.w3.org/2000/svg"
   xmlns:svg="http://www.w3.org/2000/svg"><defs
     id="defs14" /><sodipodi:namedview
     id="namedview14"
     pagecolor="#505050"
     bordercolor="#ffffff"
     borderopacity="1"
     inkscape:showpageshadow="0"
     inkscape:pageopacity="0"
     inkscape:pagecheckerboard="1"
     inkscape:deskcolor="#d1d1d1"
     inkscape:zoom="2.3809611"
     inkscape:cx="125.15954"
     inkscape:cy="158.33942"
     inkscape:window-width="1898"
     inkscape:window-height="1161"
     inkscape:window-x="0"
     inkscape:window-y="0"
     inkscape:window-maximized="0"
     inkscape:current-layer="svg14"
     inkscape:export-bgcolor="#00000000" /><rect
     style="display:inline;fill:#000000;stroke:none;stroke-width:0.999995;paint-order:fill markers stroke;fill-opacity:1.0"
     id="rect6"
     width="256"
     height="256"
     x="0"
     y="0"
     inkscape:label="background" /><path
     style="display:none;fill:#808080;stroke:#ff0000;stroke-width:5.00002;stroke-dasharray:none"
     d="M 82.294262,243.62228 C 53.236542,241.99813 41.031061,237.92332 29.560749,226.01723 19.972467,216.0647 16.135175,206.83539 14.082549,188.78984 12.726667,176.86965 14.02925,78.142021 15.708371,65.5648 18.156373,47.228182 22.317847,37.796255 32.13156,28.341927 c 9.952646,-9.588181 19.182037,-13.42545 37.227772,-15.478045 11.92032,-1.355869 110.648918,-0.0533 123.226258,1.625715 18.33681,2.447953 27.76883,6.609396 37.22326,16.423011 9.58827,9.952546 13.42558,19.181835 15.47819,37.227394 1.35589,11.920192 0.0533,110.647818 -1.62572,123.225038 -2.44797,18.33662 -6.60947,27.76856 -16.42317,37.22289 -9.61687,9.26471 -18.98709,13.29205 -35.73248,15.35801 -6.33292,0.78132 -94.095308,0.52117 -109.211288,-0.32373 z"
     id="path1"
     sodipodi:nodetypes="ssssssssssssss"
     inkscape:label="button" /><g
     id="g3"
     transform="matrix(1.5115791,0,0,1.5113388,-70.827868,-9.532024)"
     style="display:inline;stroke-width:0.661611"
     inkscape:label="armian-tux"><path
       style="fill:#dcdcdc;stroke-width:0.750614"
       d="m 90.051591,228.22801 c -2.556089,-2.72248 -5.754963,-6.41189 -5.754963,-6.41189 l 2.701627,-13.69284 -4.438403,-2.47721 c -2.864915,-1.599 -6.080647,-3.81587 -7.188072,-4.85216 l -2.013506,-1.88414 -3.330649,-16.68147 c -1.831852,-9.17481 -3.850597,-18.47888 -4.486104,-20.67571 -1.802563,-6.23119 -3.583108,-6.45501 -4.890583,-0.61476 -0.733075,3.2745 -3.057063,6.14449 -8.434491,10.41616 -4.364759,3.46721 -6.461886,4.44911 -7.558802,3.53908 -1.40925,-1.16912 -3.955639,-7.2172 -3.933358,-9.34229 0.02762,-2.63055 5.233146,-19.16754 7.509821,-23.85716 1.611889,-3.32025 2.17475,-3.94061 6.533927,-7.20154 5.680031,-4.24901 4.874937,-2.24305 10.563332,-26.31941 2.069152,-8.757769 4.011598,-16.564124 4.316548,-17.347446 l 0.554465,-1.424221 1.390185,0.996285 c 1.872339,1.341821 12.806027,12.582232 22.330304,22.956752 l 7.773191,8.4671 8.14644,0.006 8.14643,0.006 4.21119,6.08866 c 2.31616,3.34876 4.47797,6.00542 4.80402,5.9037 0.32607,-0.10174 2.61677,-2.8445 5.09047,-6.09505 l 4.49764,-5.91005 h 8.96079 8.9608 l 10.39712,-11.24737 c 13.49775,-14.601533 20.43204,-21.463921 21.05279,-20.834472 0.51692,0.524182 5.31947,19.010122 8.43955,32.485542 l 1.90762,8.23892 3.0639,2.21161 c 6.89823,4.97931 8.93857,8.07189 12.61898,19.1268 2.60861,7.83557 3.49858,12.49433 3.23884,16.95467 -0.43503,7.47081 -2.25249,8.6818 -7.59161,5.05838 -1.74876,-1.1868 -5.00189,-3.98764 -7.22918,-6.2241 -3.13175,-3.14468 -4.25146,-4.6608 -4.94023,-6.68921 -0.95915,-2.82463 -2.43678,-3.86384 -3.69935,-2.60173 -0.39278,0.39262 -2.46662,9.67867 -4.78915,21.44436 l -4.0964,20.75184 -4.88893,2.89664 c -2.68892,1.59315 -5.66723,3.53664 -6.61847,4.31886 l -1.72952,1.42221 1.29527,6.48589 1.29528,6.4859 -5.38116,5.52687 -5.38115,5.52687 -10.61343,-0.32957 c -11.565,-0.35911 -10.3957,-0.0809 -15.28796,-3.63605 -1.05409,-0.76598 -1.26662,-0.73542 -3.47708,0.49957 -2.80806,1.56887 -3.79927,1.61221 -6.70698,0.29328 -2.80729,-1.27336 -3.7297,-1.25821 -4.92328,0.0809 -1.82768,2.05049 -3.65827,2.38849 -14.92787,2.75632 l -10.842441,0.35388 z M 127.34414,112.28793 c 0,-16.558492 0.13027,-20.775116 0.63211,-20.461953 0.34766,0.216944 3.59038,2.151997 7.20604,4.300114 10.15581,6.033709 11.10439,6.675109 11.28581,7.631239 0.0931,0.49084 -0.5577,2.08316 -1.44628,3.53851 -1.6374,2.68178 -16.46313,24.48496 -17.24993,25.36827 -0.23526,0.26412 -0.42775,-8.90516 -0.42775,-20.37618 z M 72.22422,81.065774 c 0,-1.695898 9.487879,-38.083537 10.108205,-38.766684 0.46505,-0.512147 16.423056,-7.394539 33.095715,-14.273567 l 12.60984,-5.202734 3.22612,1.213853 c 6.73628,2.534586 42.37823,17.650553 42.9655,18.221931 0.98001,0.953467 10.04653,36.974186 9.62484,38.238799 -0.0954,0.286226 -4.57879,-5.312155 -9.96299,-12.440852 -5.38421,-7.128696 -9.96313,-12.961266 -10.17539,-12.961266 -0.21226,0 -6.49164,0.925712 -13.95417,2.05714 -19.89825,3.016863 -21.97636,3.046269 -37.33553,0.528315 -6.9532,-1.139895 -14.075874,-2.221545 -15.828171,-2.403667 l -3.186003,-0.331129 -2.672972,2.758663 C 89.269079,59.221842 84.696099,64.99918 80.577022,70.543103 72.179699,81.845186 72.22422,81.789097 72.22422,81.065774 Z m 33.84215,-2.678672 c -1.91268,-1.911965 -1.97838,-4.134305 -0.1755,-5.936507 1.11168,-1.111274 1.61134,-1.260788 3.40822,-1.019865 3.90451,0.523508 5.1201,3.973247 2.4187,6.864027 -1.89129,2.023876 -3.68977,2.053263 -5.65142,0.09235 z m 39.1791,-0.241085 c -0.94563,-0.945284 -1.71934,-2.165717 -1.71934,-2.712074 0,-2.728079 4.10364,-4.967727 6.64711,-3.627813 1.65604,0.872406 1.93296,1.426905 1.94183,3.888216 0.0155,4.282848 -3.70829,5.611801 -6.8696,2.451671 z"
       id="path5"
       sodipodi:nodetypes="cccsscssssscsssscsscccssscccssscsssssssscsscccccssssssccsssssssssscsscssssscsssssssssssscs"
       inkscape:label="border"
       transform="matrix(0.88135444,0,0,0.8814946,18.723159,0.66543004)" /><path
       style="display:none;fill:#ff0000;stroke:#ff0000;stroke-width:0.644296"
       d="m 95.373085,213.37352 c -4.266131,-4.37947 -4.7557,-6.4398 -3.166778,-13.3274 l 0.80731,-3.49916 -5.596892,-3.17189 c -3.078285,-1.74454 -5.789272,-3.85089 -6.02441,-4.68071 -0.235135,-0.82982 -1.770369,-8.43802 -3.411637,-16.90667 -3.975539,-20.51354 -5.192166,-22.97965 -6.992907,-14.17358 -0.565439,2.76539 -9.977351,10.94149 -12.853734,11.16635 -0.994082,0.0762 -2.115258,-1.43043 -3.181664,-4.27972 l -1.646659,-4.39987 3.501913,-11.38207 c 3.44313,-11.1907 3.584792,-11.44489 8.437445,-15.14348 l 4.93553,-3.76148 3.420563,-14.62042 4.035857,-17.831285 c -0.04347,-0.06425 7.808778,-28.111732 11.077946,-42.089202 0.182238,-0.779172 38.879702,-16.772944 39.656212,-16.772944 0.41509,0 9.52763,3.789315 20.24993,8.420696 l 19.49568,8.420698 4.06798,15.727557 c 2.23744,8.650156 5.40558,23.742671 5.74108,25.281557 0,0 -3.2046,-3.914705 -11.61649,-15.265841 -4.6089,-6.219289 -8.5053,-11.463265 -8.65867,-11.653286 -0.15332,-0.190028 -7.07335,0.621419 -15.3778,1.803205 L 127.17344,73.383262 113.32301,70.95733 C 105.7051,69.623077 99.420644,68.595097 99.357169,68.672961 96.558209,72.105388 81.80146,92.876018 81.80146,93.383223 c 0,0.400042 5.839959,7.053217 12.977671,14.784807 l 12.977739,14.05768 h 5.25504 5.25468 l -4.44751,-6.27938 c -5.68908,-8.03263 -5.54154,-8.46948 4.94852,-14.64925 l 8.78569,-5.175977 9.12337,5.409417 c 10.56892,6.26712 10.44863,5.91431 4.78194,14.01139 l -4.34088,6.20254 5.29573,0.28861 c 6.66016,0.36299 5.46094,1.23925 20.48083,-14.96459 l 15.04378,-10.895744 4.20642,15.455464 4.19212,18.27312 4.32783,3.08972 c 9.44172,6.74074 16.29542,36.39065 8.41194,36.39065 -2.32294,0 -13.05372,-9.22549 -13.63538,-11.72266 -1.10323,-4.73569 -3.20617,-5.3416 -3.90393,-1.12445 -0.33678,2.03768 -1.96052,10.39515 -3.60837,18.57246 l -2.99555,14.8679 -5.49242,3.21932 c -3.02092,1.7707 -5.49242,3.61178 -5.49242,4.09159 0,0.4797 0.47538,3.1053 1.05641,5.83511 l 1.05655,4.96309 -4.60247,4.70797 -4.60275,4.708 H 147.33 c -8.34142,0 -9.79007,-0.24981 -11.64671,-2.00686 -2.00641,-1.8994 -2.24879,-1.92158 -4.52572,-0.41842 -2.179,1.4383 -2.67173,1.44949 -5.22832,0.11756 -2.62134,-1.36568 -2.94327,-1.33587 -4.51917,0.41846 -1.48372,1.65168 -2.97402,1.88925 -11.85716,1.88925 H 99.392752 Z"
       id="path2"
       sodipodi:nodetypes="scccsccccccccccssccccscccccsccccccccccsccccssccccssccccsccssscs"
       transform="matrix(1.0268512,0,0,1.0268512,0.09957641,-17.940213)" /><path
       id="rect15"
       style="fill:#f5f5f5;stroke:#ffffff;stroke-width:0.661611;stroke-linejoin:round;stroke-miterlimit:3.9;paint-order:markers stroke fill"
       transform="translate(6.6260036,13.252013)"
       d="m 85.636763,28.111765 79.499407,0.486443 8.30409,31.282838 1.75445,7.430715 8.05233,34.723529 -59.07313,7.49442 -57.538618,-5.93265 7.86995,-36.232479 2.176498,-8.17443 z"
       sodipodi:nodetypes="cccccccccc" /><path
       style="display:inline;fill:#f58121;stroke-width:0.661611"
       d="m 94.401489,191.75 c 0.361403,-2.3375 1.128815,-5.7125 1.70536,-7.5 L 97.155112,181 h 14.903398 c 14.63731,0 14.91252,0.0402 15.41436,2.25 1.44364,6.35702 2.48086,12.68668 2.50269,13.35634 C 129.98906,197.01884 121.84249,196 111.8722,196 H 93.744391 Z m 40.382491,-3.25 1.49236,-7.5 h 15.2027 15.20271 l 1.2303,5.75 c 0.67667,3.1625 1.58923,8.57201 1.86215,9.53451 C 170.23392,197.9058 168.77993,196 151.7132,196 h -18.42158 z m -13.91254,-84.20252 -8.62856,-11.951386 9.12856,-5.487573 9.68169,-5.520111 0.1612,11.759748 c 0.0872,6.36152 -0.0328,13.522152 -0.0119,16.755682 l 0.0546,8.47738 z"
       id="path8"
       sodipodi:nodetypes="sscsscscsccccsssccccccsscc" /><path
       style="display:inline;fill:#eb1b21;stroke-width:0.661611"
       d="m 98.000008,200.5 -4.416416,-4.5 18.458208,0.0206 18.45821,0.0206 -5,4.44102 -5,4.44101 -9.04179,0.0384 -9.0418,0.0384 z m 39.500002,-0.0179 -5,-4.44102 18.45821,-0.0206 18.4582,-0.0206 -4.41641,4.5 -4.41642,4.5 -9.04179,-0.0384 -9.04179,-0.0384 z M 108.21832,175.539 c 1.80493,-2.45355 3.50669,-4.461 3.78169,-4.461 0.275,0 1.97676,2.00745 3.78169,4.461 l 3.28169,4.461 h -7.06338 -7.06339 z m 37.69707,2.711 c 0.54216,-0.9625 2.04098,-3.03811 3.33072,-4.61246 l 2.34497,-2.86245 2.52532,3.36245 c 4.51988,6.01822 4.58876,5.86246 -2.59256,5.86246 -5.98905,0 -6.50374,-0.1606 -5.60845,-1.75 z m -14.90934,-78.07339 -0.006,-18.746369 5.75,3.699587 c -0.0841,-0.05411 6.98465,3.972661 8.49368,4.823391 1.50902,0.850729 2.74652,2.101988 2.75,2.780574 0.003,0.678587 -2.35618,4.599363 -5.24368,8.712837 -2.8875,4.11348 -6.70978,9.63327 -8.49396,12.26621 L 131.0121,118.5 Z"
       id="path6"
       sodipodi:nodetypes="ccccccccccccccccccssscccssscssscccscsscc" /><path
       style="display:inline;fill:#3f3f40;stroke-width:0.661611"
       d="m 129.22834,201.76984 -2.27167,-1.09481 2.02122,-2.15149 c 1.97573,-2.10307 1.98427,-2.3357 0.37934,-10.33751 L 127.71536,180 h -4.29554 c -3.94558,0 -4.55883,-0.36662 -7.5272,-4.5 -1.77741,-2.475 -3.57741,-4.5 -4,-4.5 -0.42259,0 -2.22259,2.025 -4,4.5 -2.97532,4.14306 -3.57514,4.5 -7.56213,4.5 -3.050784,0 -4.330482,0.41484 -4.330482,1.40382 0,1.67886 -10.848953,-3.84662 -11.64969,-5.93331 -0.273725,-0.71331 -2.183919,-9.77349 -4.244876,-20.13372 -2.89187,-14.53715 -4.073402,-18.76342 -5.176315,-18.51536 -1.049431,0.23603 -1.135058,0.0217 -0.322295,-0.80683 0.80989,-0.82557 0.641559,-3.40519 -0.627451,-9.61554 -0.953851,-4.66801 -2.010518,-8.76354 -2.348149,-9.10117 -0.33763,-0.33763 -0.224933,-1.10528 0.250438,-1.70588 C 72.35704,114.9914 74.442152,107.075 76.51525,98 c 2.073099,-9.075 4.081374,-17.099542 4.462833,-17.832316 0.472892,-0.908415 4.961539,3.298786 14.107743,13.22316 l 13.414184,14.555476 7.12822,0.0268 7.12822,0.0268 3.788,5.5 c 2.0834,3.025 3.924,5.5 4.09023,5.5 0.16623,0 2.13063,-2.475 4.36533,-5.5 l 4.06309,-5.5 h 7.84822 7.84821 L 168.0918,93.512033 c 7.33275,-7.968382 13.63394,-14.155882 14.00265,-13.75 0.36871,0.405882 2.36231,8.162967 4.43022,17.237967 2.06792,9.075 4.06157,17.08099 4.43035,17.7911 0.36877,0.7101 -0.39221,6.1101 -1.69106,12 -1.29885,5.88989 -3.91313,18.5839 -5.80951,28.2089 -1.89638,9.625 -3.66023,18.4 -3.91966,19.5 -0.59835,2.53705 -11.61688,8.60139 -12.26432,6.75 -0.25204,-0.72072 -2.20139,-1.26651 -4.6038,-1.289 -3.75757,-0.0352 -4.48887,-0.47699 -7.44835,-4.5 -1.80493,-2.45355 -3.60493,-4.44345 -4,-4.422 -0.39507,0.0215 -2.17537,2.02031 -3.95622,4.44191 -2.83371,3.8533 -3.76993,4.44137 -7.5,4.711 l -4.26209,0.30809 -1.42004,7.73337 c -1.32988,7.24234 -1.30325,7.86242 0.41938,9.7659 1.78746,1.97512 1.7852,2.07356 -0.08,3.48483 -2.25155,1.70363 -2.24925,1.7035 -5.19105,0.28574 z M 112.59617,70.693972 c -2.54975,-1.864418 -1.76466,-6.099206 1.20888,-6.520736 4.42303,-0.627011 6.6542,3.224669 3.62353,6.255335 -1.90971,1.909714 -2.5366,1.944143 -4.83241,0.265401 z m 33.97527,-0.265401 c -1.95872,-1.958714 -2.00259,-3.825856 -0.12647,-5.38289 2.30222,-1.910677 6.00629,-0.889524 6.3818,1.759361 0.62701,4.423033 -3.22467,6.654196 -6.25533,3.623529 z"
       id="path4" /><path
       style="display:inline;fill:#221e1f;stroke-width:0.661611"
       d="m 56.459218,150.33265 c -1.608653,-3.76699 -1.57208,-4.03287 2.134666,-15.51887 3.581318,-11.09734 3.994451,-11.84347 8.198589,-14.80682 2.434976,-1.71633 4.657944,-2.88988 4.93993,-2.6079 0.281987,0.28199 1.294316,4.33781 2.249621,9.01293 l 1.736919,8.50023 -2.818827,3.29389 c -1.550355,1.81164 -2.837115,4.02718 -2.859468,4.92343 -0.03367,1.35012 -3.851667,4.95108 -10.742688,10.13201 -0.843306,0.63403 -1.690505,-0.24008 -2.838742,-2.9289 z m 142.290792,-1.03152 c -3.61625,-2.89903 -5.75,-5.367 -5.75,-6.65064 0,-1.12258 -1.18561,-3.27856 -2.63469,-4.79107 l -2.63468,-2.75001 1.75874,-9.05471 c 0.96731,-4.98008 1.95934,-9.0547 2.20451,-9.0547 0.24517,0 2.40042,1.34484 4.78944,2.98853 4.06643,2.79777 4.57951,3.69627 8.03855,14.0771 3.45477,10.36803 3.6144,11.37599 2.45654,15.51148 -0.68108,2.43259 -1.51735,4.4028 -1.85837,4.37825 -0.34102,-0.0246 -3.20754,-2.11895 -6.37004,-4.65423 z M 86.728167,56.810933 c 2.447514,-9.521013 4.747434,-17.608632 5.110933,-17.972487 0.817624,-0.818423 38.69776,-16.835938 39.83706,-16.844996 0.45312,-0.0036 9.59885,3.681539 20.32385,8.189204 10.725,4.507665 19.5702,8.223113 19.65601,8.25655 C 171.97395,38.5631 180.82788,73 180.5418,73 c -0.16343,0 -4.187,-5.178749 -8.94127,-11.50833 l -8.64414,-11.508331 -3.72819,0.567429 c -29.15036,4.436665 -26.23406,4.309863 -41.09514,1.786838 -7.49818,-1.272997 -14.59851,-2.319729 -15.77851,-2.326073 -1.58129,-0.0085 -4.325417,2.946756 -10.435573,11.238467 -4.559564,6.1875 -8.594028,11.61492 -8.965476,12.060933 -0.371448,0.446014 1.327152,-6.978986 3.774666,-16.5 z"
       id="path3" /></g><rect
     style="display:inline;fill:#000000;stroke:none;stroke-width:1;paint-order:fill markers stroke;fill-opacity:1.0"
     id="rect5"
     width="256"
     height="80.51104"
     x="0"
     y="178.09578"
     inkscape:label="text_background" /><g
     id="g2"
     transform="matrix(0.9232669,0,0,0.92145004,9.8254615,193.6398)"
     inkscape:label="armbian_font"
     style="stroke-width:1.08418"><path
       d="M 8.0292094,235.94681 H 4.5932438 l 0.028909,-0.16825 c 0.015903,-0.0925 3.7150896,-8.44191 8.2203052,-18.55348 4.505278,-10.11218 8.226419,-18.46109 8.269201,-18.55347 l 0.0778,-0.16825 h 8.594956 l 0.08721,0.13765 c 0.04797,0.0757 3.802732,8.45721 8.343764,18.62506 4.541215,10.16847 8.256977,18.53084 8.256977,18.58407 0,0.0867 -0.359439,0.0964 -3.560096,0.0957 -2.858894,-6.1e-4 -3.623535,-0.0176 -3.882062,-0.0865 -0.177095,-0.0472 -0.493378,-0.16677 -0.702852,-0.26572 -0.209474,-0.099 -0.551427,-0.30914 -0.759874,-0.46707 -0.20846,-0.15794 -0.506371,-0.45674 -0.662025,-0.66401 -0.155642,-0.20728 -0.323947,-0.45615 -0.374009,-0.55306 -0.05006,-0.0969 -2.386333,-5.72836 -5.191689,-12.51419 -2.805355,-6.78571 -5.150006,-12.40712 -5.210268,-12.49094 -0.06026,-0.0838 -0.203907,-0.20258 -0.319168,-0.26323 -0.137319,-0.0723 -0.289391,-0.10052 -0.441085,-0.082 -0.127339,0.0156 -0.298847,0.0724 -0.381135,0.12642 -0.08229,0.054 -0.192129,0.16309 -0.244085,0.24247 -0.05196,0.0794 -2.404913,5.70242 -5.228787,12.49583 -2.823874,6.79305 -5.222615,12.50196 -5.330548,12.68551 -0.107952,0.18389 -0.378183,0.51615 -0.600529,0.73834 -0.267144,0.26698 -0.56772,0.48899 -0.886204,0.65459 -0.265066,0.13782 -0.650901,0.29425 -0.857479,0.34764 -0.321184,0.083 -0.872758,0.0971 -3.8115326,0.0971 z m 45.2715806,-0.0149 c -3.428326,0.0125 -4.331888,-2.4e-4 -4.35499,-0.0612 -0.01604,-0.0423 -0.02213,-8.46027 -0.01352,-18.70705 l 0.01565,-18.62995 h 9.075952 c 8.340708,0 9.149904,0.009 9.992714,0.10958 0.50422,0.0603 1.384312,0.2033 1.955761,0.31784 0.571449,0.11455 1.430883,0.33472 1.9098,0.48928 0.478935,0.15456 1.166122,0.40488 1.527082,0.55627 0.360967,0.15139 0.917986,0.41447 1.237752,0.58462 0.319767,0.17014 0.844461,0.4838 1.165878,0.69698 0.321442,0.21321 0.802718,0.56487 1.069557,0.78148 0.266839,0.21661 0.761891,0.67974 1.100115,1.02915 0.338237,0.3494 0.767025,0.84174 0.952822,1.09412 0.185798,0.25237 0.447943,0.63782 0.582517,0.85655 0.134575,0.21872 0.314786,0.52157 0.400467,0.673 0.08568,0.15143 0.285028,0.57817 0.442986,0.94832 0.157964,0.37015 0.378238,0.98962 0.489502,1.3766 0.111265,0.38698 0.263172,1.04774 0.337565,1.46837 0.104101,0.58858 0.142281,1.09602 0.165726,2.20256 0.02371,1.11926 0.0078,1.62444 -0.07184,2.28044 -0.05626,0.46348 -0.182808,1.17274 -0.28122,1.57617 -0.0984,0.40342 -0.278757,1.00161 -0.400778,1.3293 -0.122021,0.32769 -0.345729,0.85178 -0.497136,1.16461 -0.151406,0.31286 -0.48913,0.89105 -0.750523,1.28482 -0.261369,0.39379 -0.722837,0.99409 -1.025552,1.33402 -0.302666,0.3399 -0.821175,0.84517 -1.152188,1.12281 -0.331043,0.27765 -0.890421,0.69631 -1.243069,0.93033 -0.352648,0.23404 -0.978247,0.59602 -1.390179,0.80443 -0.411938,0.20838 -0.749117,0.39819 -0.74924,0.42178 -1.22e-4,0.0236 1.842449,2.68602 4.09463,5.91643 2.25218,3.23042 4.094874,5.91613 4.094874,5.96826 0,0.0846 -0.492143,0.0947 -4.636803,0.0947 h -4.636798 l -3.476548,-5.02901 c -1.912123,-2.76598 -3.541027,-5.10638 -3.619868,-5.20091 l -0.143327,-0.17188 -7.780872,0.0315 -0.06112,10.33978 z m 8.725137,-17.37817 c 4.036873,-0.0239 4.317769,-0.0327 4.957853,-0.15431 0.373208,-0.0709 0.950744,-0.21607 1.283468,-0.32254 0.332724,-0.10647 0.7974,-0.2901 1.032703,-0.40808 0.235302,-0.11797 0.576882,-0.31314 0.75908,-0.43373 0.182179,-0.12058 0.491244,-0.36754 0.686838,-0.54879 0.195564,-0.18125 0.482664,-0.49879 0.638006,-0.70561 0.15533,-0.20686 0.365874,-0.54148 0.467867,-0.74361 0.101993,-0.20213 0.250313,-0.55827 0.329594,-0.79145 0.07928,-0.23316 0.183793,-0.64615 0.232253,-0.91773 0.04846,-0.2716 0.105373,-0.71406 0.126477,-0.98326 0.0211,-0.2692 0.0079,-0.79231 -0.02936,-1.16246 -0.03725,-0.37015 -0.134269,-0.92562 -0.215586,-1.23441 -0.08132,-0.30879 -0.22842,-0.73933 -0.326893,-0.95671 -0.09847,-0.2174 -0.296933,-0.56906 -0.441024,-0.78147 -0.144091,-0.21241 -0.435077,-0.55694 -0.646623,-0.76564 -0.211565,-0.20868 -0.571223,-0.50278 -0.799234,-0.65354 -0.22803,-0.15078 -0.552111,-0.34311 -0.720209,-0.42741 -0.168073,-0.0843 -0.540175,-0.23606 -0.82692,-0.33726 -0.286721,-0.1012 -0.795506,-0.24029 -1.130674,-0.30907 -0.33515,-0.0688 -0.876425,-0.15431 -1.202854,-0.19003 -0.356902,-0.0391 -2.178045,-0.065 -4.568533,-0.065 h -3.975022 v 6.41372 c 0,3.52764 0.02014,6.43391 0.04476,6.459 0.02461,0.0246 1.970429,0.0334 4.324065,0.0195 z m 25.501285,17.38001 c -2.532526,0.0139 -3.169921,0.002 -3.193757,-0.0612 -0.0164,-0.0432 -0.02277,-8.46211 -0.01417,-18.70827 l 0.01565,-18.62996 3.58277,-0.0158 c 3.239412,-0.0143 3.590837,-0.006 3.667051,0.0833 0.04636,0.0545 3.1808,4.65945 6.965568,10.23332 3.784636,5.57376 6.903216,10.13421 6.930106,10.13421 0.027,0 3.12231,-4.59784 6.87878,-10.21741 l 6.82927,-10.21742 h 7.19537 l 0.0365,8.87141 c 0.0201,4.87927 0.0474,13.28998 0.0608,18.69114 l 0.0244,9.81973 -3.09762,0.0159 c -2.98254,0.0153 -3.10997,0.0113 -3.42876,-0.10815 -0.1821,-0.0682 -0.46266,-0.21125 -0.62346,-0.31789 -0.16081,-0.10663 -0.41203,-0.35656 -0.55824,-0.5554 -0.15197,-0.20665 -0.3185,-0.53213 -0.38875,-0.75982 -0.12093,-0.39194 -0.12289,-0.55382 -0.12289,-10.16908 0,-8.4052 -0.0123,-9.7873 -0.0879,-9.88948 -0.078,-0.10539 -0.098,-0.10843 -0.17732,-0.027 -0.0492,0.0505 -2.24099,3.71222 -4.8707,8.13722 -2.6297,4.42499 -4.85945,8.15924 -4.95498,8.29874 -0.0955,0.13941 -0.3405,0.40462 -0.54443,0.58936 -0.20393,0.18474 -0.54301,0.42077 -0.75352,0.5245 -0.21051,0.10374 -0.56002,0.23045 -0.77674,0.28158 -0.21672,0.0511 -0.5728,0.093 -0.79129,0.093 -0.21849,0 -0.5732,-0.0415 -0.78824,-0.0923 -0.21503,-0.0507 -0.58631,-0.19351 -0.82508,-0.31726 -0.29008,-0.15034 -0.57368,-0.36812 -0.85467,-0.6563 -0.37608,-0.38569 -0.93278,-1.27602 -5.262276,-8.4156 -3.699567,-6.1009 -4.86905,-7.98427 -4.957793,-7.98427 -0.11341,0 -0.116777,0.22423 -0.146633,9.76161 l -0.03056,9.76161 -0.230163,0.46617 c -0.15621,0.31638 -0.329172,0.55529 -0.53831,0.74355 -0.169479,0.15254 -0.464701,0.3543 -0.656036,0.44836 l -0.347893,0.17103 z m 52.049508,0.0132 c -7.59202,0 -9.56611,-0.0157 -9.58934,-0.0765 -0.016,-0.0421 -0.022,-8.46027 -0.0134,-18.70644 l 0.0157,-18.62995 h 9.4121 c 8.76425,0 9.46282,0.008 10.14551,0.11051 0.40337,0.0608 1.03319,0.17788 1.39953,0.26023 0.36636,0.0823 0.9989,0.26046 1.4057,0.39582 0.40677,0.13537 1.15212,0.45144 1.65634,0.70237 0.50422,0.25095 1.17804,0.64193 1.49738,0.86879 0.31934,0.22686 0.898,0.72978 1.28598,1.11755 0.47585,0.47566 0.84849,0.91981 1.14534,1.3651 0.24198,0.36302 0.54739,0.88616 0.67871,1.16246 0.1313,0.27633 0.32145,0.73798 0.42256,1.0259 0.10111,0.28792 0.23965,0.7835 0.30787,1.10128 0.0682,0.31776 0.15338,0.84511 0.18925,1.17188 0.0359,0.32676 0.0652,0.9542 0.0652,1.39428 0,0.44008 -0.0293,1.06756 -0.0652,1.39428 -0.0359,0.32676 -0.12102,0.8541 -0.18925,1.17188 -0.0682,0.31777 -0.20709,0.81335 -0.30859,1.10128 -0.10151,0.28792 -0.30864,0.77089 -0.46031,1.07319 -0.15167,0.30234 -0.40724,0.74477 -0.56794,0.98314 -0.16071,0.2384 -0.43222,0.58683 -0.60336,0.77426 -0.17114,0.18745 -0.31118,0.35307 -0.31118,0.36805 0,0.015 0.24178,0.20795 0.53728,0.42884 0.29549,0.2209 0.77417,0.65086 1.06375,0.95549 0.28956,0.3046 0.67669,0.78227 0.86029,1.06151 0.1836,0.27924 0.46351,0.76636 0.62205,1.08249 0.15852,0.31614 0.39557,0.8962 0.52678,1.28905 0.13121,0.39284 0.29617,1.04272 0.36659,1.4442 0.0797,0.45447 0.14089,1.13572 0.1621,1.80524 0.0207,0.65208 0.006,1.35041 -0.0383,1.77428 -0.0398,0.38445 -0.12775,0.97433 -0.19548,1.31083 -0.0677,0.3365 -0.20549,0.85961 -0.30613,1.16246 -0.10064,0.30285 -0.31665,0.8314 -0.48001,1.17457 -0.16336,0.34317 -0.44035,0.83875 -0.61552,1.10128 -0.17518,0.26253 -0.46641,0.65948 -0.64717,0.88206 -0.18078,0.22261 -0.55868,0.62578 -0.83975,0.8959 -0.2811,0.27014 -0.7149,0.64204 -0.96395,0.82644 -0.24905,0.18441 -0.64473,0.45349 -0.87918,0.59795 -0.23443,0.14447 -0.72876,0.40647 -1.09852,0.58223 -0.36976,0.17577 -0.93357,0.41682 -1.25291,0.53567 -0.31934,0.11885 -0.8969,0.29822 -1.28347,0.39859 -0.38657,0.10037 -1.04664,0.23949 -1.46682,0.30915 -0.42018,0.0697 -1.04878,0.15489 -1.3969,0.18938 -0.40233,0.0399 -4.11621,0.0627 -10.19318,0.0627 z m 2.74149,-7.03779 c 1.95912,-9.8e-4 3.90871,-0.0272 4.3325,-0.0582 0.42377,-0.031 1.05562,-0.11462 1.40411,-0.18571 0.34851,-0.0711 0.87294,-0.21926 1.16545,-0.32924 0.2925,-0.10999 0.69197,-0.29404 0.8878,-0.40902 0.19582,-0.11497 0.59303,-0.44307 0.88284,-0.72911 0.38498,-0.38 0.58509,-0.63611 0.74306,-0.95095 0.11893,-0.237 0.27355,-0.62247 0.34361,-0.85655 0.0701,-0.2341 0.15205,-0.65287 0.18219,-0.93058 0.0312,-0.28747 0.0323,-0.7058 0.003,-0.97127 -0.0287,-0.2565 -0.0969,-0.62124 -0.15151,-0.81047 -0.0546,-0.18927 -0.19819,-0.53685 -0.31909,-0.77243 -0.15948,-0.31071 -0.38027,-0.5887 -0.80431,-1.01268 -0.51231,-0.51226 -0.66373,-0.62357 -1.22626,-0.90128 -0.35331,-0.17443 -0.9027,-0.38404 -1.22235,-0.4664 -0.31934,-0.0823 -0.78689,-0.18603 -1.039,-0.23061 -0.35053,-0.062 -1.4362,-0.081 -4.61437,-0.081 h -4.15599 l -0.0158,4.77221 c -0.009,2.62471 -0.003,4.80658 0.0134,4.84868 0.0229,0.06 0.79655,0.0761 3.59115,0.0747 z m -0.39726,-14.56073 c 1.74062,-5.3e-4 3.49017,-0.028 3.88786,-0.0609 0.3977,-0.033 0.97526,-0.11183 1.28347,-0.17521 0.3082,-0.0634 0.78041,-0.20062 1.04933,-0.30499 0.26892,-0.10436 0.66459,-0.29352 0.87924,-0.42034 0.21464,-0.12683 0.57743,-0.41576 0.8062,-0.64205 0.22874,-0.22631 0.52568,-0.59799 0.65988,-0.82596 0.13418,-0.22796 0.30409,-0.59344 0.37757,-0.81219 0.0758,-0.22555 0.14717,-0.62577 0.16493,-0.92464 0.0222,-0.37358 8.4e-4,-0.66407 -0.0734,-0.99801 -0.0576,-0.25908 -0.23111,-0.72402 -0.38561,-1.03318 -0.22143,-0.44307 -0.37959,-0.65979 -0.74674,-1.02309 -0.32837,-0.32496 -0.61398,-0.53817 -0.9681,-0.72256 -0.27625,-0.14387 -0.65988,-0.31662 -0.85259,-0.38388 -0.1927,-0.0673 -0.59782,-0.17557 -0.90038,-0.2407 -0.30256,-0.0651 -0.94885,-0.1473 -1.43626,-0.1826 -0.50081,-0.0363 -2.20188,-0.0564 -3.91152,-0.0462 l -3.02532,0.018 -0.0158,4.31334 c -0.009,2.37233 -0.003,4.34772 0.0134,4.38981 0.0228,0.0598 0.71771,0.0763 3.19394,0.0755 z m 26.03606,21.58322 c -3.42833,0.0125 -4.33189,-2.4e-4 -4.35499,-0.0612 -0.016,-0.0423 -0.0221,-8.46026 -0.0135,-18.70705 l 0.0156,-18.62995 h 8.67868 v 37.38228 z m 10.17301,0.0149 h -3.44739 l 0.0286,-0.13766 c 0.0157,-0.0757 3.73624,-8.46638 8.26798,-18.64525 4.53162,-10.17948 8.26614,-18.54246 8.29854,-18.58468 0.0466,-0.0607 0.96602,-0.0736 4.36892,-0.0612 l 4.30983,0.0157 8.33459,18.65626 c 4.61376,10.32754 8.31137,18.67952 8.28265,18.70888 -0.0288,0.0288 -1.70005,0.0444 -3.71399,0.0347 l -3.66167,-0.0176 -0.42783,-0.17116 c -0.2353,-0.0941 -0.60101,-0.28406 -0.81268,-0.42204 -0.21166,-0.13799 -0.54656,-0.42755 -0.74416,-0.64346 -0.22377,-0.24446 -0.44996,-0.58148 -0.59958,-0.89338 -0.13213,-0.27545 -2.50569,-5.97554 -5.2745,-12.66715 -2.76887,-6.69148 -5.09354,-12.2303 -5.16596,-12.308 -0.0724,-0.0782 -0.24402,-0.17594 -0.38133,-0.21712 -0.21218,-0.0636 -0.29086,-0.0591 -0.52425,0.0301 -0.17656,0.0675 -0.31717,0.17451 -0.39382,0.2997 -0.0656,0.10709 -2.40717,5.70113 -5.20354,12.43098 -2.79637,6.73003 -5.16969,12.40161 -5.27402,12.60352 -0.11655,0.22555 -0.38054,0.55812 -0.6847,0.86254 -0.36817,0.3685 -0.61166,0.55248 -0.95013,0.71797 -0.25032,0.12239 -0.61906,0.26423 -0.8194,0.31521 -0.30416,0.0774 -0.93314,0.0927 -3.81172,0.0927 z m 44.58279,0 h -3.58357 V 198.5031 h 7.20637 l 0.35428,0.41539 c 0.19487,0.22846 4.34094,5.29249 9.21347,11.25322 4.87253,5.96091 8.88099,10.82434 8.90788,10.80782 0.0268,-0.0166 0.0487,-5.08081 0.0487,-11.25384 v -11.22385 l 8.58701,0.0314 v 37.38227 h -6.11175 l -0.47394,-0.17456 c -0.26066,-0.096 -0.63195,-0.27714 -0.82508,-0.40252 -0.19313,-0.12538 -0.47492,-0.35042 -0.62621,-0.50008 -0.15127,-0.14965 -4.00167,-4.81313 -8.55646,-10.36303 -4.55478,-5.55013 -8.32298,-10.13909 -8.3731,-10.19783 -0.0501,-0.0587 -0.16217,-0.12334 -0.24833,-0.14367 -0.10702,-0.0252 -0.20386,0.001 -0.30559,0.0838 l -0.14893,0.12072 -0.0611,20.30145 -0.18444,0.361 c -0.12351,0.24177 -0.28189,0.43474 -0.4795,0.58425 -0.16228,0.12278 -0.39876,0.25434 -0.52551,0.29236 -0.15989,0.048 -1.32753,0.0691 -3.81397,0.0691 z M 25.596585,234.89874 c -0.06494,0.0701 -0.102488,0.0446 -0.225475,-0.15295 -0.08116,-0.13035 -1.378078,-2.49079 -2.881997,-5.24539 -1.50398,-2.7546 -2.719729,-5.04679 -2.701761,-5.09372 0.02772,-0.0723 0.907901,-0.0829 5.764299,-0.0697 5.381092,0.0146 5.731051,0.0221 5.72335,0.12102 -0.0045,0.058 -1.266477,2.41198 -2.804316,5.23107 -1.5379,2.81909 -2.831208,5.16347 -2.874051,5.20972 z m 170.059495,-0.006 c -0.0675,0.013 -0.89562,-1.44983 -2.95222,-5.21492 -1.57219,-2.87813 -2.84148,-5.26056 -2.82064,-5.29427 0.0248,-0.0402 2.00209,-0.0613 5.75061,-0.0613 4.98597,0 5.71718,0.0115 5.74749,0.0905 0.0201,0.0524 -1.15805,2.27371 -2.79838,5.27616 -1.61907,2.96354 -2.87326,5.19345 -2.92686,5.20379 z"
       style="display:inline;fill:#000000;stroke:#ffffff;stroke-width:1.08419"
       id="path9"
       inkscape:label="font_border"
       transform="translate(-0.9734791,-193.22352)" /><path
       id="path1-0"
       style="fill:#ff0000;stroke:none;stroke-width:1.08418;stroke-linejoin:round;stroke-miterlimit:3.9;paint-order:markers stroke fill"
       d="m 22.929688,31.230469 c -3.578272,0.0093 -3.650589,0.07685 -3.53125,0.533203 0.07667,0.293196 1.169605,2.436752 2.429687,4.763672 1.601335,2.957089 2.429247,4.230468 2.75,4.230468 0.273782,10e-7 0.690212,-0.453948 1.03125,-1.125 0.314402,-0.618638 1.45672,-2.762193 2.539063,-4.763671 l 1.966796,-3.638672 H 24.6875 c -0.663925,0 -1.246631,-0.0013 -1.757812,0 z m 171.859372,0 c -4.63158,0 -5.29297,0.05079 -5.29297,0.414062 0,0.228341 1.08197,2.379594 2.40625,4.779297 1.70866,3.096196 2.5288,4.33844 2.82422,4.28125 0.35448,-0.06862 5.33868,-8.708879 5.35156,-9.277344 0.002,-0.109174 -2.37782,-0.197265 -5.28906,-0.197265 z" /></g></svg>
