<?xml version="1.0" encoding="UTF-8" standalone="no"?>
<svg
   version="1.1"
   viewBox="0 0 256 256"
   id="svg14"
   sodipodi:docname="armbian-tux.svg"
   inkscape:version="1.3.2 (091e20e, 2023-11-25, custom)"
   inkscape:export-filename="configng_tux.png"
   inkscape:export-xdpi="192"
   inkscape:export-ydpi="192"
   width="256"
   height="256"
   xml:space="preserve"
   xmlns:inkscape="http://www.inkscape.org/namespaces/inkscape"
   xmlns:sodipodi="http://sodipodi.sourceforge.net/DTD/sodipodi-0.dtd"
   xmlns="http://www.w3.org/2000/svg"
   xmlns:svg="http://www.w3.org/2000/svg"><defs
     id="defs14" /><sodipodi:namedview
     id="namedview14"
     pagecolor="#505050"
     bordercolor="#ffffff"
     borderopacity="1"
     inkscape:showpageshadow="0"
     inkscape:pageopacity="0"
     inkscape:pagecheckerboard="1"
     inkscape:deskcolor="#d1d1d1"
     inkscape:zoom="2.676664"
     inkscape:cx="122.5406"
     inkscape:cy="137.85817"
     inkscape:window-width="1898"
     inkscape:window-height="1161"
     inkscape:window-x="0"
     inkscape:window-y="0"
     inkscape:window-maximized="0"
     inkscape:current-layer="svg14"
     inkscape:export-bgcolor="#00000000" /><g
     id="g3"
     transform="matrix(1.1346173,0,0,1.1344369,-21.129609,-0.75488998)"
     style="display:inline;stroke-width:0.881423"
     inkscape:label="armian-tux"><path
       style="display:inline;fill:#000000;stroke:#f5f5f5;stroke-width:0.858355"
       d="m 95.373085,213.37352 c -4.266131,-4.37947 -4.7557,-6.4398 -3.166778,-13.3274 l 0.80731,-3.49916 -5.596892,-3.17189 c -3.078285,-1.74454 -5.789272,-3.85089 -6.02441,-4.68071 -0.235135,-0.82982 -1.770369,-8.43802 -3.411637,-16.90667 -3.975539,-20.51354 -5.192166,-22.97965 -6.992907,-14.17358 -0.565439,2.76539 -9.977351,10.94149 -12.853734,11.16635 -0.994082,0.0762 -2.115258,-1.43043 -3.181664,-4.27972 l -1.646659,-4.39987 3.501913,-11.38207 c 3.44313,-11.1907 3.584792,-11.44489 8.437445,-15.14348 l 4.93553,-3.76148 3.420563,-14.62042 4.035857,-17.831285 c -0.04347,-0.06425 7.808778,-28.111732 11.077946,-42.089202 0.182238,-0.779172 38.879702,-16.772944 39.656212,-16.772944 0.41509,0 9.52763,3.789315 20.24993,8.420696 l 19.49568,8.420698 4.06798,15.727557 c 2.23744,8.650156 5.40558,23.742671 5.74108,25.281557 0,0 -3.2046,-3.914705 -11.61649,-15.265841 -4.6089,-6.219289 -8.5053,-11.463265 -8.65867,-11.653286 -0.15332,-0.190028 -7.07335,0.621419 -15.3778,1.803205 L 127.17344,73.383262 113.32301,70.95733 C 105.7051,69.623077 99.420644,68.595097 99.357169,68.672961 96.558209,72.105388 81.80146,92.876018 81.80146,93.383223 c 0,0.400042 5.839959,7.053217 12.977671,14.784807 l 12.977739,14.05768 h 5.25504 5.25468 l -4.44751,-6.27938 c -5.68908,-8.03263 -5.54154,-8.46948 4.94852,-14.64925 l 8.78569,-5.175977 9.12337,5.409417 c 10.56892,6.26712 10.44863,5.91431 4.78194,14.01139 l -4.34088,6.20254 5.29573,0.28861 c 6.66016,0.36299 5.46094,1.23925 20.48083,-14.96459 l 15.04378,-10.895744 4.20642,15.455464 4.19212,18.27312 4.32783,3.08972 c 9.44172,6.74074 16.29542,36.39065 8.41194,36.39065 -2.32294,0 -13.05372,-9.22549 -13.63538,-11.72266 -1.10323,-4.73569 -3.20617,-5.3416 -3.90393,-1.12445 -0.33678,2.03768 -1.96052,10.39515 -3.60837,18.57246 l -2.99555,14.8679 -5.49242,3.21932 c -3.02092,1.7707 -5.49242,3.61178 -5.49242,4.09159 0,0.4797 0.47538,3.1053 1.05641,5.83511 l 1.05655,4.96309 -4.60247,4.70797 -4.60275,4.708 H 147.33 c -8.34142,0 -9.79007,-0.24981 -11.64671,-2.00686 -2.00641,-1.8994 -2.24879,-1.92158 -4.52572,-0.41842 -2.179,1.4383 -2.67173,1.44949 -5.22832,0.11756 -2.62134,-1.36568 -2.94327,-1.33587 -4.51917,0.41846 -1.48372,1.65168 -2.97402,1.88925 -11.85716,1.88925 H 99.392752 Z"
       id="path2"
       sodipodi:nodetypes="scccsccccccccccssccccscccccsccccccccccsccccssccccssccccsccssscs"
       transform="matrix(1.0268512,0,0,1.0268512,0.09957641,-17.940213)" /><path
       id="rect15"
       style="fill:#f5f5f5;stroke:#ffffff;stroke-width:0.881423;stroke-linejoin:round;stroke-miterlimit:3.9;paint-order:markers stroke fill"
       transform="translate(6.6260036,13.252013)"
       d="m 85.636763,28.111765 79.499407,0.486443 8.30409,31.282838 1.75445,7.430715 8.05233,34.723529 -59.07313,7.49442 -57.538618,-5.93265 7.86995,-36.232479 2.176498,-8.17443 z"
       sodipodi:nodetypes="cccccccccc" /><path
       style="display:inline;fill:#f58121;stroke-width:0.881423"
       d="m 94.401489,191.75 c 0.361403,-2.3375 1.128815,-5.7125 1.70536,-7.5 L 97.155112,181 h 14.903398 c 14.63731,0 14.91252,0.0402 15.41436,2.25 1.44364,6.35702 2.48086,12.68668 2.50269,13.35634 C 129.98906,197.01884 121.84249,196 111.8722,196 H 93.744391 Z m 40.382491,-3.25 1.49236,-7.5 h 15.2027 15.20271 l 1.2303,5.75 c 0.67667,3.1625 1.58923,8.57201 1.86215,9.53451 C 170.23392,197.9058 168.77993,196 151.7132,196 h -18.42158 z m -13.91254,-84.20252 -8.62856,-11.951386 9.12856,-5.487573 9.68169,-5.520111 0.1612,11.759748 c 0.0872,6.36152 -0.0328,13.522152 -0.0119,16.755682 l 0.0546,8.47738 z"
       id="path8"
       sodipodi:nodetypes="sscsscscsccccsssccccccsscc" /><path
       style="display:inline;fill:#eb1b21;stroke-width:0.881423"
       d="m 98.000008,200.5 -4.416416,-4.5 18.458208,0.0206 18.45821,0.0206 -5,4.44102 -5,4.44101 -9.04179,0.0384 -9.0418,0.0384 z m 39.500002,-0.0179 -5,-4.44102 18.45821,-0.0206 18.4582,-0.0206 -4.41641,4.5 -4.41642,4.5 -9.04179,-0.0384 -9.04179,-0.0384 z M 108.21832,175.539 c 1.80493,-2.45355 3.50669,-4.461 3.78169,-4.461 0.275,0 1.97676,2.00745 3.78169,4.461 l 3.28169,4.461 h -7.06338 -7.06339 z m 37.69707,2.711 c 0.54216,-0.9625 2.04098,-3.03811 3.33072,-4.61246 l 2.34497,-2.86245 2.52532,3.36245 c 4.51988,6.01822 4.58876,5.86246 -2.59256,5.86246 -5.98905,0 -6.50374,-0.1606 -5.60845,-1.75 z m -14.90934,-78.07339 -0.006,-18.746369 5.75,3.699587 c -0.0841,-0.05411 6.98465,3.972661 8.49368,4.823391 1.50902,0.850729 2.74652,2.101988 2.75,2.780574 0.003,0.678587 -2.35618,4.599363 -5.24368,8.712837 -2.8875,4.11348 -6.70978,9.63327 -8.49396,12.26621 L 131.0121,118.5 Z"
       id="path6"
       sodipodi:nodetypes="ccccccccccccccccccssscccssscssscccscsscc" /><path
       style="display:inline;fill:#3f3f40;stroke-width:0.881423"
       d="m 129.22834,201.76984 -2.27167,-1.09481 2.02122,-2.15149 c 1.97573,-2.10307 1.98427,-2.3357 0.37934,-10.33751 L 127.71536,180 h -4.29554 c -3.94558,0 -4.55883,-0.36662 -7.5272,-4.5 -1.77741,-2.475 -3.57741,-4.5 -4,-4.5 -0.42259,0 -2.22259,2.025 -4,4.5 -2.97532,4.14306 -3.57514,4.5 -7.56213,4.5 -3.050784,0 -4.330482,0.41484 -4.330482,1.40382 0,1.67886 -10.848953,-3.84662 -11.64969,-5.93331 -0.273725,-0.71331 -2.183919,-9.77349 -4.244876,-20.13372 -2.89187,-14.53715 -4.073402,-18.76342 -5.176315,-18.51536 -1.049431,0.23603 -1.135058,0.0217 -0.322295,-0.80683 0.80989,-0.82557 0.641559,-3.40519 -0.627451,-9.61554 -0.953851,-4.66801 -2.010518,-8.76354 -2.348149,-9.10117 -0.33763,-0.33763 -0.224933,-1.10528 0.250438,-1.70588 C 72.35704,114.9914 74.442152,107.075 76.51525,98 c 2.073099,-9.075 4.081374,-17.099542 4.462833,-17.832316 0.472892,-0.908415 4.961539,3.298786 14.107743,13.22316 l 13.414184,14.555476 7.12822,0.0268 7.12822,0.0268 3.788,5.5 c 2.0834,3.025 3.924,5.5 4.09023,5.5 0.16623,0 2.13063,-2.475 4.36533,-5.5 l 4.06309,-5.5 h 7.84822 7.84821 L 168.0918,93.512033 c 7.33275,-7.968382 13.63394,-14.155882 14.00265,-13.75 0.36871,0.405882 2.36231,8.162967 4.43022,17.237967 2.06792,9.075 4.06157,17.08099 4.43035,17.7911 0.36877,0.7101 -0.39221,6.1101 -1.69106,12 -1.29885,5.88989 -3.91313,18.5839 -5.80951,28.2089 -1.89638,9.625 -3.66023,18.4 -3.91966,19.5 -0.59835,2.53705 -11.61688,8.60139 -12.26432,6.75 -0.25204,-0.72072 -2.20139,-1.26651 -4.6038,-1.289 -3.75757,-0.0352 -4.48887,-0.47699 -7.44835,-4.5 -1.80493,-2.45355 -3.60493,-4.44345 -4,-4.422 -0.39507,0.0215 -2.17537,2.02031 -3.95622,4.44191 -2.83371,3.8533 -3.76993,4.44137 -7.5,4.711 l -4.26209,0.30809 -1.42004,7.73337 c -1.32988,7.24234 -1.30325,7.86242 0.41938,9.7659 1.78746,1.97512 1.7852,2.07356 -0.08,3.48483 -2.25155,1.70363 -2.24925,1.7035 -5.19105,0.28574 z M 112.59617,70.693972 c -2.54975,-1.864418 -1.76466,-6.099206 1.20888,-6.520736 4.42303,-0.627011 6.6542,3.224669 3.62353,6.255335 -1.90971,1.909714 -2.5366,1.944143 -4.83241,0.265401 z m 33.97527,-0.265401 c -1.95872,-1.958714 -2.00259,-3.825856 -0.12647,-5.38289 2.30222,-1.910677 6.00629,-0.889524 6.3818,1.759361 0.62701,4.423033 -3.22467,6.654196 -6.25533,3.623529 z"
       id="path4" /><path
       style="display:inline;fill:#221e1f;stroke-width:0.881423"
       d="m 56.459218,150.33265 c -1.608653,-3.76699 -1.57208,-4.03287 2.134666,-15.51887 3.581318,-11.09734 3.994451,-11.84347 8.198589,-14.80682 2.434976,-1.71633 4.657944,-2.88988 4.93993,-2.6079 0.281987,0.28199 1.294316,4.33781 2.249621,9.01293 l 1.736919,8.50023 -2.818827,3.29389 c -1.550355,1.81164 -2.837115,4.02718 -2.859468,4.92343 -0.03367,1.35012 -3.851667,4.95108 -10.742688,10.13201 -0.843306,0.63403 -1.690505,-0.24008 -2.838742,-2.9289 z m 142.290792,-1.03152 c -3.61625,-2.89903 -5.75,-5.367 -5.75,-6.65064 0,-1.12258 -1.18561,-3.27856 -2.63469,-4.79107 l -2.63468,-2.75001 1.75874,-9.05471 c 0.96731,-4.98008 1.95934,-9.0547 2.20451,-9.0547 0.24517,0 2.40042,1.34484 4.78944,2.98853 4.06643,2.79777 4.57951,3.69627 8.03855,14.0771 3.45477,10.36803 3.6144,11.37599 2.45654,15.51148 -0.68108,2.43259 -1.51735,4.4028 -1.85837,4.37825 -0.34102,-0.0246 -3.20754,-2.11895 -6.37004,-4.65423 z M 86.728167,56.810933 c 2.447514,-9.521013 4.747434,-17.608632 5.110933,-17.972487 0.817624,-0.818423 38.69776,-16.835938 39.83706,-16.844996 0.45312,-0.0036 9.59885,3.681539 20.32385,8.189204 10.725,4.507665 19.5702,8.223113 19.65601,8.25655 C 171.97395,38.5631 180.82788,73 180.5418,73 c -0.16343,0 -4.187,-5.178749 -8.94127,-11.50833 l -8.64414,-11.508331 -3.72819,0.567429 c -29.15036,4.436665 -26.23406,4.309863 -41.09514,1.786838 -7.49818,-1.272997 -14.59851,-2.319729 -15.77851,-2.326073 -1.58129,-0.0085 -4.325417,2.946756 -10.435573,11.238467 -4.559564,6.1875 -8.594028,11.61492 -8.965476,12.060933 -0.371448,0.446014 1.327152,-6.978986 3.774666,-16.5 z"
       id="path3" /></g></svg>
