<?xml version="1.0" encoding="UTF-8" standalone="no"?>
<svg
   version="1.1"
   viewBox="0 0 256 256"
   id="svg14"
   sodipodi:docname="configng_sproket_v1.svg"
   inkscape:version="1.3.2 (091e20e, 2023-11-25, custom)"
   inkscape:export-filename="configng_tux.png"
   inkscape:export-xdpi="192"
   inkscape:export-ydpi="192"
   width="256"
   height="256"
   xml:space="preserve"
   xmlns:inkscape="http://www.inkscape.org/namespaces/inkscape"
   xmlns:sodipodi="http://sodipodi.sourceforge.net/DTD/sodipodi-0.dtd"
   xmlns="http://www.w3.org/2000/svg"
   xmlns:svg="http://www.w3.org/2000/svg"><defs
     id="defs14" /><sodipodi:namedview
     id="namedview14"
     pagecolor="#505050"
     bordercolor="#ffffff"
     borderopacity="1"
     inkscape:showpageshadow="0"
     inkscape:pageopacity="0"
     inkscape:pagecheckerboard="1"
     inkscape:deskcolor="#d1d1d1"
     inkscape:zoom="2.676664"
     inkscape:cx="116.93661"
     inkscape:cy="125.52939"
     inkscape:window-width="1898"
     inkscape:window-height="1161"
     inkscape:window-x="0"
     inkscape:window-y="0"
     inkscape:window-maximized="0"
     inkscape:current-layer="g2"
     inkscape:export-bgcolor="#00000000" /><g
     id="g2"
     transform="matrix(2.0166237,0,0,2.0177058,309.58701,-159.87474)"
     style="display:inline;stroke-width:0.495745"
     inkscape:label="config_v1_spocket"><ellipse
       style="fill:#000000;stroke:#000000;stroke-width:1.82526;stroke-linejoin:round;stroke-dasharray:none;stroke-opacity:1;paint-order:markers stroke fill"
       id="path1-8"
       cx="176.73351"
       cy="186.36884"
       rx="46.769386"
       ry="44.79142"
       transform="matrix(0.81479525,0,0,0.81481955,-234.85939,-6.8276265)" /><path
       id="path9-7"
       style="display:inline;fill:#ff0000;stroke:#000000;stroke-width:1.48724;stroke-linejoin:round;stroke-dasharray:none;paint-order:markers stroke fill"
       d="m -68.611141,88.927187 c -4.34057,1.97881 -7.42763,7.13387 -11.605474,9.9341 -7.03964,-0.98367 -14.26269,-1.16042 -21.225895,0.56581 -4.73205,-1.95793 -7.90664,-7.33929 -12.43996,-9.47064 -3.92687,2.54838 -10.88395,4.27961 -11.93872,8.91507 0.14122,5.024423 4.81201,10.855093 1.61999,15.368443 -4.36521,4.94975 -6.74887,11.19922 -9.07583,17.24368 -4.55199,1.97771 -9.38239,3.3597 -14.06433,5.05076 -0.3709,4.96092 -0.31815,9.99091 0.40971,14.91656 4.70985,1.57695 9.68061,2.55556 14.25789,4.42 2.68549,6.16898 5.64205,12.39883 10.41641,17.28725 2.24138,4.53306 -1.29566,10.2208 -1.47476,15.16758 2.07229,4.2312 8.41516,5.86421 12.68179,8.09556 4.16868,-3.06678 7.27546,-7.99636 11.848595,-10.22109 6.7429,1.26209 13.71364,1.05068 20.388424,-0.52395 4.62363,2.13775 7.98714,6.65912 12.22279,9.58237 4.343738,-2.10486 9.813087,-4.55487 12.491255,-8.21543 -0.307734,-5.15198 -4.574369,-10.96049 -2.216813,-15.72594 4.814385,-5.05994 6.87628,-11.96621 9.876927,-17.94366 4.281507,-2.13174 10.370331,-2.66059 13.701231,-5.5239 0.41352,-4.73481 0.203705,-9.50742 -0.402106,-14.21474 -4.738563,-1.40523 -9.520113,-2.6781 -14.206305,-4.25232 -2.707126,-5.91556 -5.390911,-12.06293 -10.010938,-16.82058 -2.665053,-1.67607 -1.06199,-4.3978 -0.791078,-6.74712 0.198712,-3.49897 2.696096,-7.681433 1.098264,-10.644993 -3.591258,-2.49038 -7.479587,-4.67849 -11.561067,-6.24277 z m -2.24055,27.762503 c 2.12507,0.23358 4.21393,1.0506 6.37914,2.45528 l 2.135779,1.38615 -6.215139,3.29956 -6.21473,3.29641 0.0845,2.85058 c 0.0721,2.43424 0.41636,3.09527 2.36638,4.54005 l 2.28195,1.68944 6.20013,-3.24101 6.19745,-3.24458 0.06951,2.17647 c 0.15823,4.92502 -3.081464,10.33261 -7.80139,13.02405 -4.49386,2.56255 -11.17735,2.41008 -15.195524,-0.34547 -1.23488,-0.8469 -2.99113,-0.0804 -19.12363,8.35253 -19.104965,9.98666 -20.399135,10.38462 -23.403025,7.18204 -1.61062,-1.71717 -1.94641,-4.92844 -0.73988,-7.04988 0.63073,-1.10894 6.39777,-4.49445 18.56073,-10.89671 17.357695,-9.13662 17.644765,-9.32226 17.692575,-11.33614 0.12659,-5.33167 2.81663,-9.35343 8.12075,-12.14787 3.080734,-1.62309 5.872134,-2.29103 8.604464,-1.9909 z" /></g></svg>
